<?xml version="1.0" encoding="utf-8"?>
<!-- Generator: Adobe Illustrator 24.0.2, SVG Export Plug-In . SVG Version: 6.00 Build 0)  -->
<svg version="1.1" id="Layer_1" xmlns="http://www.w3.org/2000/svg" xmlns:xlink="http://www.w3.org/1999/xlink" x="0px" y="0px"
	 viewBox="0 0 19.66 45.38" style="enable-background:new 0 0 19.66 45.38;" xml:space="preserve">
<style type="text/css">
	.st0{fill:#367F33;}
	.st1{fill:#085C5E;}
	.st2{fill:#4A494A;}
	.st3{fill:#E62F1F;}
	.st4{fill:#F39200;}
</style>
<g>
	<g>
		<g>
			<path class="st0" d="M16.15,11.65v-0.49c0-0.1-0.08-0.19-0.19-0.19h-0.37c-0.1,0-0.19,0.08-0.19,0.19v0.49
				c-0.11,0.05-0.19,0.17-0.19,0.3v0.58c0,0.13,0.08,0.25,0.19,0.3v0.49c0,0.1,0.08,0.19,0.19,0.19h0.37c0.1,0,0.19-0.08,0.19-0.19
				v-0.49c0.11-0.05,0.19-0.17,0.19-0.3v-0.58C16.34,11.82,16.26,11.7,16.15,11.65z M16.07,13.32c0,0.06-0.05,0.11-0.11,0.11h-0.37
				c-0.06,0-0.11-0.05-0.11-0.11v-0.47c0.02,0,0.03,0,0.05,0h0.49c0.02,0,0.03,0,0.05,0V13.32z M16.02,11.62h-0.49
				c-0.02,0-0.04,0-0.05,0.01v-0.47c0-0.06,0.05-0.11,0.11-0.11h0.37c0.06,0,0.11,0.05,0.11,0.11v0.47
				C16.05,11.63,16.03,11.62,16.02,11.62z"/>
		</g>
	</g>
	<g>
		<g>
			<path class="st0" d="M17.6,11.65v-0.49c0-0.1-0.08-0.19-0.19-0.19h-0.37c-0.1,0-0.19,0.08-0.19,0.19v0.49
				c-0.12,0.05-0.2,0.17-0.2,0.3v0.58c0,0.13,0.08,0.25,0.2,0.3v0.49c0,0.1,0.08,0.19,0.19,0.19h0.37c0.1,0,0.19-0.08,0.19-0.19
				v-0.49c0.11-0.05,0.19-0.17,0.19-0.3v-0.58C17.79,11.82,17.71,11.7,17.6,11.65z M16.93,11.16c0-0.06,0.05-0.11,0.11-0.11h0.37
				c0.06,0,0.11,0.05,0.11,0.11v0.47c-0.02,0-0.03-0.01-0.05-0.01h-0.48c-0.02,0-0.04,0-0.05,0V11.16z M17.52,13.32
				c0,0.06-0.05,0.11-0.11,0.11h-0.37c-0.06,0-0.11-0.05-0.11-0.11v-0.47c0.02,0,0.04,0,0.05,0h0.48c0.02,0,0.04,0,0.05,0V13.32z"/>
		</g>
	</g>
</g>
<g>
	<path class="st1" d="M7.63,1.33v7.96h-1.1v-6.8H4.81C4.52,1.91,3.93,1.52,3.25,1.52c-0.68,0-1.27,0.39-1.56,0.96H1.55V1.33H7.63z"
		/>
</g>
<g>
	<g>
		<g>
			<path class="st0" d="M17.65,15.63v-0.49c0-0.1-0.08-0.19-0.19-0.19h-0.38c-0.1,0-0.19,0.08-0.19,0.19v0.49
				c-0.12,0.05-0.2,0.17-0.2,0.3v0.58c0,0.13,0.08,0.25,0.2,0.3v0.5c0,0.1,0.08,0.19,0.19,0.19h0.38c0.1,0,0.19-0.08,0.19-0.19v-0.5
				c0.11-0.05,0.19-0.17,0.19-0.3v-0.58C17.84,15.8,17.76,15.68,17.65,15.63z M17.57,17.3c0,0.06-0.05,0.11-0.11,0.11h-0.38
				c-0.06,0-0.11-0.05-0.11-0.11v-0.47c0.02,0,0.04,0,0.05,0h0.48c0.02,0,0.04,0,0.05,0V17.3z M17.57,15.61
				c-0.02,0-0.03-0.01-0.05-0.01h-0.48c-0.02,0-0.04,0-0.05,0v-0.47c0-0.06,0.05-0.11,0.11-0.11h0.38c0.06,0,0.11,0.05,0.11,0.11
				V15.61z"/>
		</g>
	</g>
	<g>
		<g>
			<path class="st0" d="M17.65,19.66v-0.49c0-0.1-0.08-0.19-0.19-0.19h-0.38c-0.1,0-0.19,0.08-0.19,0.19v0.49
				c-0.12,0.05-0.2,0.17-0.2,0.3v0.58c0,0.13,0.08,0.25,0.2,0.3v0.49c0,0.1,0.08,0.19,0.19,0.19h0.38c0.1,0,0.19-0.08,0.19-0.19
				v-0.49c0.11-0.05,0.19-0.17,0.19-0.3v-0.58C17.84,19.83,17.76,19.71,17.65,19.66z M17.57,21.32c0,0.06-0.05,0.11-0.11,0.11h-0.38
				c-0.06,0-0.11-0.05-0.11-0.11v-0.47c0.02,0,0.04,0,0.05,0h0.48c0.02,0,0.04,0,0.05,0V21.32z M17.57,19.64
				c-0.02,0-0.03-0.01-0.05-0.01h-0.48c-0.02,0-0.04,0-0.05,0v-0.47c0-0.06,0.05-0.11,0.11-0.11h0.38c0.06,0,0.11,0.05,0.11,0.11
				V19.64z"/>
		</g>
	</g>
</g>
<g>
	<g>
		<g>
			<path class="st0" d="M16.15,23.69v-0.5c0-0.1-0.08-0.19-0.19-0.19h-0.37c-0.1,0-0.19,0.08-0.19,0.19v0.5
				c-0.11,0.05-0.19,0.16-0.19,0.3v0.58c0,0.13,0.08,0.25,0.19,0.3v0.5c0,0.1,0.08,0.19,0.19,0.19h0.37c0.1,0,0.19-0.08,0.19-0.19
				v-0.5c0.11-0.05,0.19-0.16,0.19-0.3v-0.58C16.34,23.85,16.26,23.74,16.15,23.69z M16.07,25.36c0,0.06-0.05,0.11-0.11,0.11h-0.37
				c-0.06,0-0.11-0.05-0.11-0.11v-0.47c0.02,0,0.03,0,0.05,0h0.49c0.02,0,0.03,0,0.05,0V25.36z M16.02,23.66h-0.49
				c-0.02,0-0.04,0-0.05,0.01V23.2c0-0.06,0.05-0.11,0.11-0.11h0.37c0.06,0,0.11,0.05,0.11,0.11v0.47
				C16.05,23.66,16.03,23.66,16.02,23.66z"/>
		</g>
	</g>
	<g>
		<g>
			<path class="st0" d="M17.41,23.01h-0.37c-0.1,0-0.19,0.08-0.19,0.19v0.5c0.02-0.01,0.05-0.02,0.08-0.02V23.2
				c0-0.06,0.05-0.11,0.11-0.11h0.37c0.06,0,0.11,0.05,0.11,0.11v0.47c0.03,0,0.05,0.01,0.08,0.02v-0.5
				C17.6,23.09,17.51,23.01,17.41,23.01z"/>
			<path class="st0" d="M17.79,23.99v0.58c0,0.13-0.08,0.25-0.19,0.3c-0.02,0.01-0.05,0.02-0.08,0.02c-0.02,0-0.03,0-0.05,0h-0.48
				c-0.02,0-0.04,0-0.05,0c-0.03,0-0.05-0.01-0.08-0.02c-0.12-0.05-0.2-0.16-0.2-0.3v-0.58c0-0.13,0.08-0.25,0.2-0.3
				c0.02-0.01,0.05-0.02,0.08-0.02c0.02,0,0.04,0,0.05,0h0.48c0.02,0,0.04,0,0.05,0.01c0.03,0,0.05,0.01,0.08,0.02
				C17.71,23.74,17.79,23.85,17.79,23.99z"/>
		</g>
		<g>
			<path class="st0" d="M17.52,24.88v0.47c0,0.06-0.05,0.11-0.11,0.11h-0.37c-0.06,0-0.11-0.05-0.11-0.11v-0.47
				c-0.03,0-0.05-0.01-0.08-0.02v0.5c0,0.1,0.08,0.19,0.19,0.19h0.37c0.1,0,0.19-0.08,0.19-0.19v-0.5
				C17.57,24.87,17.55,24.88,17.52,24.88z"/>
		</g>
	</g>
</g>
<g>
	<g>
		<path class="st0" d="M10.76,39.13c0.09,0,0.16-0.07,0.16-0.16v-0.49c0-0.09-0.07-0.16-0.16-0.16h-0.59
			c-0.05-0.15-0.17-0.27-0.32-0.32v-0.59c0-0.09-0.07-0.16-0.16-0.16H9.2c-0.09,0-0.16,0.07-0.16,0.16v0.59
			c-0.15,0.06-0.27,0.17-0.32,0.32H8.17c-0.09,0-0.16,0.07-0.16,0.16v0.49c0,0.09,0.07,0.16,0.16,0.16h0.52v0.37H8.16
			C8.07,39.5,8,39.57,8,39.66v0.48c0,0.09,0.07,0.16,0.16,0.16h0.53v0.36H8.16C8.07,40.66,8,40.73,8,40.82v0.48
			c0,0.09,0.07,0.16,0.16,0.16h0.56c0.06,0.15,0.17,0.27,0.32,0.32v0.6c0,0.09,0.07,0.16,0.16,0.16h0.48c0.09,0,0.16-0.07,0.16-0.16
			v-0.6c0.15-0.05,0.27-0.17,0.32-0.32h0.58c0.09,0,0.16-0.07,0.16-0.16v-0.48c0-0.09-0.07-0.16-0.16-0.16H10.2V40.3h0.54
			c0.09,0,0.16-0.07,0.16-0.16v-0.48c0-0.09-0.07-0.16-0.16-0.16H10.2v-0.37H10.76z M8.17,39.05c-0.05,0-0.08-0.04-0.08-0.08v-0.49
			c0-0.04,0.04-0.08,0.08-0.08H8.7c-0.01,0.04-0.01,0.08-0.01,0.11v0.53H8.17z M8.16,40.23c-0.05,0-0.08-0.04-0.08-0.08v-0.48
			c0-0.05,0.04-0.08,0.08-0.08h0.53v0.65H8.16z M8.16,41.39c-0.05,0-0.08-0.04-0.08-0.08v-0.48c0-0.05,0.03-0.08,0.08-0.08h0.53
			v0.53c0,0.04,0,0.08,0.01,0.12H8.16z M9.77,42.38c0,0.04-0.04,0.08-0.08,0.08H9.2c-0.05,0-0.08-0.04-0.08-0.08v-0.57
			c0.04,0.01,0.08,0.01,0.11,0.01h0.42c0.04,0,0.08,0,0.12-0.01V42.38z M9.65,37.97H9.23c-0.04,0-0.08,0-0.11,0.01v-0.57
			c0-0.04,0.03-0.08,0.08-0.08h0.48c0.05,0,0.08,0.04,0.08,0.08v0.57C9.73,37.98,9.69,37.97,9.65,37.97z M10.74,40.74
			c0.04,0,0.08,0.04,0.08,0.08v0.48c0,0.05-0.04,0.08-0.08,0.08h-0.56c0.01-0.04,0.01-0.08,0.01-0.12v-0.53H10.74z M10.74,39.58
			c0.05,0,0.08,0.04,0.08,0.08v0.48c0,0.05-0.04,0.08-0.08,0.08H10.2v-0.65H10.74z M10.19,38.41h0.57c0.05,0,0.08,0.04,0.08,0.08
			v0.49c0,0.04-0.03,0.08-0.08,0.08H10.2v-0.53C10.2,38.48,10.2,38.44,10.19,38.41z"/>
	</g>
</g>
<g>
	<g>
		<g>
			<path class="st0" d="M4.42,41.4H3.77c-0.01,0-0.02,0-0.03,0c-0.05-0.11-0.16-0.2-0.3-0.2H2.87c-0.18,0-0.33,0.15-0.33,0.33v0.48
				c0,0.18,0.14,0.33,0.33,0.33h0.58c0.14,0,0.25-0.08,0.3-0.2c0.01,0,0.02,0,0.03,0h0.64c0.1,0,0.19-0.08,0.19-0.19v-0.37
				C4.6,41.49,4.52,41.4,4.42,41.4z M4.53,41.96c0,0.06-0.05,0.11-0.11,0.11H3.77c0,0-0.01,0-0.01,0c0-0.02,0.01-0.03,0.01-0.05
				v-0.48c0-0.02,0-0.03,0-0.05c0,0,0.01,0,0.01,0h0.64c0.06,0,0.11,0.05,0.11,0.11V41.96z"/>
		</g>
	</g>
	<g>
		<g>
			<path class="st0" d="M3.77,40.31v0.47c0,0.02,0,0.04,0,0.05c0,0.03-0.01,0.05-0.02,0.08c-0.05,0.12-0.16,0.2-0.3,0.2H2.87
				c-0.18,0-0.33-0.14-0.33-0.33v-0.47c0-0.18,0.14-0.33,0.33-0.33h0.58c0.14,0,0.25,0.08,0.3,0.2c0.01,0.02,0.02,0.05,0.02,0.08
				C3.77,40.27,3.77,40.29,3.77,40.31z"/>
		</g>
		<g>
			<path class="st0" d="M4.42,40.17H3.77c-0.01,0-0.02,0-0.03,0c0.01,0.02,0.02,0.05,0.02,0.08c0,0,0.01,0,0.01,0h0.64
				c0.06,0,0.11,0.05,0.11,0.11v0.37c0,0.06-0.05,0.11-0.11,0.11H3.77c0,0-0.01,0-0.01,0c0,0.03-0.01,0.05-0.02,0.08
				c0.01,0,0.02,0,0.03,0h0.64c0.1,0,0.19-0.08,0.19-0.19v-0.37C4.6,40.26,4.52,40.17,4.42,40.17z"/>
		</g>
	</g>
	<g>
		<g>
			<path class="st0" d="M4.42,38.52H3.77c-0.01,0-0.02,0-0.03,0c-0.05-0.12-0.16-0.2-0.3-0.2H2.87c-0.18,0-0.33,0.14-0.33,0.33v0.47
				c0,0.18,0.14,0.33,0.33,0.33h0.58c0.14,0,0.25-0.08,0.3-0.2c0.01,0,0.02,0,0.03,0h0.64c0.1,0,0.19-0.08,0.19-0.19V38.7
				C4.6,38.6,4.52,38.52,4.42,38.52z M4.53,39.08c0,0.06-0.05,0.11-0.11,0.11H3.77c0,0-0.01,0-0.01,0c0-0.02,0-0.04,0-0.05v-0.47
				c0-0.02,0-0.04,0-0.05c0,0,0.01,0,0.01,0h0.64c0.06,0,0.11,0.05,0.11,0.11V39.08z"/>
		</g>
	</g>
	<g>
		<g>
			<path class="st0" d="M3.77,37.4v0.48c0,0.02,0,0.03,0,0.05c0,0.03-0.01,0.05-0.02,0.08c-0.05,0.11-0.16,0.2-0.3,0.2H2.87
				c-0.18,0-0.33-0.15-0.33-0.33V37.4c0-0.18,0.14-0.33,0.33-0.33h0.58c0.14,0,0.25,0.08,0.3,0.2c0.01,0.02,0.02,0.05,0.02,0.08
				C3.77,37.37,3.77,37.38,3.77,37.4z"/>
		</g>
		<g>
			<path class="st0" d="M4.42,37.27H3.77c-0.01,0-0.02,0-0.03,0c0.01,0.02,0.02,0.05,0.02,0.08c0,0,0.01,0,0.01,0h0.64
				c0.06,0,0.11,0.05,0.11,0.11v0.37c0,0.06-0.05,0.11-0.11,0.11H3.77c0,0-0.01,0-0.01,0c0,0.03-0.01,0.05-0.02,0.08
				c0.01,0,0.02,0,0.03,0h0.64c0.1,0,0.19-0.08,0.19-0.19v-0.37C4.6,37.35,4.52,37.27,4.42,37.27z"/>
		</g>
	</g>
</g>
<g>
	<g>
		<g>
			<path class="st0" d="M12.8,21.9l-0.39-0.39c0.06-0.1,0.06-0.22,0-0.32l0.38-0.38c0.03-0.03,0.05-0.08,0.05-0.13
				c0-0.05-0.02-0.09-0.05-0.13l-0.26-0.26c-0.07-0.07-0.19-0.07-0.26,0l-0.38,0.38c-0.1-0.06-0.22-0.06-0.32,0l-0.39-0.39
				c-0.07-0.07-0.19-0.07-0.26,0l-0.26,0.26c-0.03,0.03-0.05,0.08-0.05,0.13c0,0.05,0.02,0.1,0.05,0.13l0.39,0.39
				c-0.06,0.1-0.06,0.22,0,0.32l-0.38,0.38c-0.03,0.03-0.05,0.08-0.05,0.13c0,0.05,0.02,0.09,0.05,0.13l0.26,0.26
				c0.04,0.04,0.08,0.05,0.13,0.05c0.05,0,0.09-0.02,0.13-0.05l0.38-0.38c0.1,0.06,0.22,0.06,0.32,0l0.39,0.39
				c0.03,0.03,0.08,0.05,0.13,0.05c0.05,0,0.09-0.02,0.13-0.05l0.26-0.26C12.88,22.09,12.88,21.97,12.8,21.9z M11.13,22.37
				c-0.04,0.04-0.11,0.04-0.15,0l-0.26-0.26c-0.02-0.02-0.03-0.05-0.03-0.08c0-0.03,0.01-0.06,0.03-0.08l0.37-0.37c0,0,0,0,0,0.01
				l0.41,0.4c0,0,0,0,0.01,0L11.13,22.37z M11.5,20.72l-0.41,0.4c0,0,0,0,0,0.01l-0.38-0.38c-0.04-0.04-0.04-0.11,0-0.15l0.26-0.26
				c0.02-0.02,0.05-0.03,0.08-0.03c0.03,0,0.06,0.01,0.08,0.03L11.5,20.72C11.5,20.71,11.5,20.72,11.5,20.72z M12.33,20.34
				c0.02-0.02,0.05-0.03,0.08-0.03c0.03,0,0.06,0.01,0.08,0.03l0.26,0.26c0.02,0.02,0.03,0.05,0.03,0.08c0,0.03-0.01,0.06-0.03,0.08
				l-0.37,0.37c0,0,0,0,0-0.01l-0.41-0.4c0,0,0,0-0.01,0L12.33,20.34z M12.75,22.11l-0.26,0.26c-0.04,0.04-0.11,0.04-0.15,0
				l-0.38-0.38c0,0,0,0,0.01,0l0.41-0.4c0,0,0,0,0-0.01l0.38,0.38C12.79,22,12.79,22.07,12.75,22.11z"/>
		</g>
	</g>
	<g>
		<g>
			<path class="st0" d="M8.12,23.43c-0.07-0.07-0.19-0.07-0.26,0L7.6,23.69c-0.03,0.03-0.05,0.08-0.05,0.13s0.02,0.1,0.05,0.13
				l0.39,0.39C8,24.32,8.01,24.3,8.03,24.28L7.65,23.9c-0.02-0.02-0.03-0.05-0.03-0.08s0.01-0.06,0.03-0.08l0.26-0.26
				c0.02-0.02,0.05-0.03,0.08-0.03c0.03,0,0.06,0.01,0.08,0.03l0.38,0.38c0.02-0.02,0.04-0.03,0.06-0.05L8.12,23.43z"/>
		</g>
		<g>
			<path class="st0" d="M9.75,25.05l-0.39-0.39c0.06-0.1,0.06-0.22,0-0.32l0.38-0.38c0.07-0.07,0.07-0.19,0-0.26l-0.26-0.26
				c-0.07-0.07-0.19-0.07-0.27,0l-0.38,0.38c-0.1-0.06-0.22-0.06-0.32,0c-0.02,0.01-0.04,0.03-0.06,0.05c0,0,0,0-0.01,0.01l-0.4,0.4
				c0,0,0,0-0.01,0.01C8.01,24.3,8,24.32,7.99,24.34c-0.06,0.1-0.06,0.22,0,0.32L7.6,25.05c-0.04,0.03-0.06,0.08-0.06,0.13
				s0.02,0.09,0.06,0.13l0.26,0.26C7.9,25.61,7.95,25.63,8,25.63c0.05,0,0.09-0.02,0.13-0.05l0.38-0.38c0.1,0.06,0.22,0.06,0.32,0
				l0.39,0.39c0.03,0.03,0.08,0.05,0.13,0.05c0.05,0,0.1-0.02,0.13-0.05l0.26-0.26c0.04-0.03,0.06-0.08,0.06-0.13
				C9.8,25.13,9.78,25.09,9.75,25.05z M8.07,25.52c-0.04,0.04-0.11,0.04-0.15,0l-0.26-0.26c-0.02-0.02-0.03-0.05-0.03-0.08
				c0-0.03,0.01-0.06,0.03-0.08l0.37-0.37l0.41,0.41c0,0,0,0,0.01,0L8.07,25.52z M9.27,23.49c0.02-0.02,0.05-0.03,0.08-0.03
				c0.03,0,0.06,0.01,0.08,0.03l0.26,0.26c0.04,0.04,0.04,0.11,0,0.15l-0.37,0.37c0,0,0,0,0-0.01l-0.4-0.4c0,0,0,0-0.01,0
				L9.27,23.49z M9.69,25.26l-0.26,0.26c-0.04,0.04-0.11,0.04-0.15,0L8.9,25.14l0.41-0.41c0,0,0,0,0.01-0.01l0.38,0.38
				c0.02,0.02,0.03,0.05,0.03,0.08C9.72,25.21,9.71,25.24,9.69,25.26z"/>
		</g>
	</g>
	<g>
		<g>
			<path class="st0" d="M8.45,21.99l-0.37,0.38c-0.04,0.04-0.11,0.04-0.15,0L7.66,22.1c-0.02-0.02-0.03-0.05-0.03-0.08
				c0-0.03,0.01-0.06,0.03-0.08l0.37-0.37C8.01,21.56,8,21.53,7.99,21.51L7.6,21.9c-0.04,0.03-0.06,0.08-0.06,0.13
				c0,0.05,0.02,0.09,0.06,0.13l0.26,0.26C7.9,22.46,7.95,22.47,8,22.47c0.05,0,0.09-0.02,0.13-0.05l0.38-0.38
				C8.49,22.02,8.47,22.01,8.45,21.99z"/>
		</g>
		<g>
			<path class="st0" d="M9.75,21.9l-0.39-0.39c0.06-0.1,0.06-0.22,0-0.32l0.38-0.39c0.07-0.07,0.07-0.19,0-0.26l-0.26-0.26
				c-0.07-0.07-0.19-0.07-0.27,0l-0.38,0.38c-0.1-0.06-0.22-0.06-0.32,0l-0.39-0.39c-0.07-0.07-0.19-0.07-0.26,0L7.6,20.54
				c-0.03,0.03-0.05,0.08-0.05,0.13c0,0.05,0.02,0.1,0.05,0.13l0.39,0.39c-0.06,0.1-0.06,0.22,0,0.32c0.01,0.02,0.03,0.05,0.05,0.06
				c0,0,0,0,0.01,0.01l0.4,0.4c0,0,0,0,0.01,0c0.02,0.02,0.04,0.03,0.06,0.05c0.1,0.06,0.22,0.06,0.32,0l0.39,0.39
				c0.04,0.03,0.08,0.05,0.13,0.05c0.05,0,0.09-0.02,0.13-0.05l0.26-0.26c0.04-0.03,0.06-0.08,0.06-0.13
				C9.8,21.98,9.78,21.93,9.75,21.9z M8.44,20.72l-0.4,0.4c0,0,0,0-0.01,0.01l-0.38-0.38c-0.04-0.04-0.04-0.11,0-0.15l0.26-0.26
				c0.02-0.02,0.05-0.03,0.08-0.03c0.03,0,0.06,0.01,0.08,0.03L8.44,20.72C8.45,20.71,8.44,20.72,8.44,20.72z M9.27,20.34
				c0.02-0.02,0.05-0.03,0.08-0.03c0.03,0,0.06,0.01,0.08,0.03l0.26,0.26c0.04,0.04,0.04,0.11,0,0.15l-0.37,0.37c0,0,0,0,0-0.01
				l-0.4-0.4c0,0,0,0-0.01,0L9.27,20.34z M9.69,22.11l-0.26,0.26c-0.04,0.04-0.11,0.04-0.15,0L8.9,21.99l0.41-0.41
				c0,0,0,0,0.01-0.01l0.38,0.38c0.02,0.02,0.03,0.05,0.03,0.08C9.72,22.06,9.71,22.09,9.69,22.11z"/>
		</g>
	</g>
	<g>
		<g>
			<path class="st0" d="M12.8,25.05l-0.39-0.39c0.06-0.1,0.06-0.22,0-0.32l0.38-0.38c0.03-0.03,0.05-0.08,0.05-0.13
				c0-0.05-0.02-0.09-0.05-0.13l-0.26-0.26c-0.07-0.07-0.19-0.07-0.26,0l-0.38,0.38c-0.1-0.06-0.22-0.06-0.32,0l-0.39-0.39
				c-0.07-0.07-0.19-0.07-0.26,0l-0.26,0.26c-0.03,0.03-0.05,0.08-0.05,0.13s0.02,0.1,0.05,0.13l0.39,0.39
				c-0.06,0.1-0.06,0.22,0,0.32l-0.38,0.38c-0.03,0.03-0.05,0.08-0.05,0.13s0.02,0.09,0.05,0.13l0.26,0.26
				c0.04,0.04,0.08,0.05,0.13,0.05c0.05,0,0.09-0.02,0.13-0.05l0.38-0.38c0.1,0.06,0.22,0.06,0.32,0l0.39,0.39
				c0.03,0.03,0.08,0.05,0.13,0.05c0.05,0,0.09-0.02,0.13-0.05l0.26-0.26C12.88,25.24,12.88,25.13,12.8,25.05z M11.13,25.52
				c-0.04,0.04-0.11,0.04-0.15,0l-0.26-0.26c-0.02-0.02-0.03-0.05-0.03-0.08c0-0.03,0.01-0.06,0.03-0.08l0.37-0.37c0,0,0,0,0,0.01
				l0.41,0.4c0,0,0,0,0.01,0L11.13,25.52z M11.5,23.87l-0.41,0.4c0,0,0,0,0,0.01l-0.38-0.38c-0.02-0.02-0.03-0.05-0.03-0.08
				s0.01-0.06,0.03-0.08l0.26-0.26c0.02-0.02,0.05-0.03,0.08-0.03c0.03,0,0.06,0.01,0.08,0.03L11.5,23.87
				C11.5,23.87,11.5,23.87,11.5,23.87z M12.33,23.49c0.02-0.02,0.05-0.03,0.08-0.03s0.06,0.01,0.08,0.03l0.26,0.26
				c0.04,0.04,0.04,0.11,0,0.15l-0.37,0.37c0,0,0,0,0-0.01l-0.41-0.4c0,0,0,0-0.01,0L12.33,23.49z M12.75,25.26l-0.26,0.26
				c-0.04,0.04-0.11,0.04-0.15,0l-0.38-0.38c0,0,0,0,0.01,0l0.41-0.4c0,0,0,0,0-0.01l0.38,0.38C12.79,25.15,12.79,25.22,12.75,25.26
				z"/>
		</g>
	</g>
</g>
<g>
	<path class="st0" d="M11.13,18.93c-0.03,0-0.06-0.01-0.09-0.03c-0.04-0.03-0.07-0.07-0.09-0.11l-0.14-0.54
		c-0.03-0.1,0.03-0.2,0.13-0.23l0.36-0.09c0.05-0.01,0.1-0.01,0.14,0.02c0.04,0.03,0.07,0.07,0.09,0.11l0.14,0.54
		c0.01,0.05,0.01,0.1-0.02,0.14c-0.03,0.04-0.07,0.07-0.11,0.09l-0.36,0.09C11.17,18.93,11.15,18.93,11.13,18.93z M11.03,18.78
		c0.01,0.03,0.03,0.05,0.05,0.07c0.02,0.01,0.05,0.02,0.08,0.01l0.36-0.09c0.03-0.01,0.05-0.03,0.07-0.05s0.02-0.05,0.01-0.08
		l-0.14-0.54c-0.01-0.03-0.03-0.05-0.05-0.07c-0.02-0.01-0.05-0.02-0.08-0.01l-0.36,0.09c-0.03,0.01-0.05,0.03-0.07,0.05
		s-0.02,0.05-0.01,0.08L11.03,18.78z"/>
</g>
<g>
	<path class="st0" d="M10.12,18.97c0,0-0.01,0-0.01,0l-0.37-0.02c-0.05,0-0.1-0.02-0.13-0.06c-0.03-0.04-0.05-0.08-0.05-0.13
		L9.6,18.2c0-0.05,0.02-0.1,0.06-0.13c0.04-0.03,0.08-0.05,0.13-0.05l0.37,0.02c0.1,0.01,0.18,0.09,0.18,0.2l-0.03,0.56
		c0,0.05-0.02,0.1-0.06,0.13C10.21,18.96,10.17,18.97,10.12,18.97z M9.78,18.1c-0.06,0-0.1,0.04-0.11,0.1l-0.03,0.56
		c0,0.03,0.01,0.06,0.03,0.08c0.02,0.02,0.05,0.03,0.07,0.04l0.37,0.02c0.03,0,0.06-0.01,0.08-0.03c0.02-0.02,0.03-0.05,0.04-0.07
		l0.03-0.56c0-0.06-0.04-0.11-0.1-0.11L9.78,18.1C9.79,18.1,9.79,18.1,9.78,18.1z"/>
</g>
<g>
	<path class="st0" d="M8.83,18.6c-0.03,0-0.06-0.01-0.09-0.02l-0.32-0.19c-0.04-0.02-0.07-0.06-0.09-0.11s-0.01-0.1,0.02-0.14
		l0.28-0.48c0.05-0.09,0.17-0.12,0.25-0.07l0.32,0.19c0.04,0.02,0.07,0.06,0.09,0.11c0.01,0.05,0.01,0.1-0.02,0.14l-0.28,0.48
		C8.96,18.57,8.9,18.6,8.83,18.6z M8.79,17.64c-0.01,0-0.02,0-0.03,0c-0.03,0.01-0.05,0.03-0.07,0.05l-0.28,0.48
		C8.4,18.2,8.4,18.23,8.41,18.26c0.01,0.03,0.03,0.05,0.05,0.07l0.32,0.19c0.05,0.03,0.12,0.01,0.15-0.04l0.28-0.48
		c0.01-0.03,0.02-0.05,0.01-0.08c-0.01-0.03-0.03-0.05-0.05-0.07l-0.32-0.19C8.83,17.64,8.81,17.64,8.79,17.64z"/>
</g>
<g>
	<path class="st0" d="M7.82,17.81c-0.05,0-0.11-0.02-0.14-0.07l-0.23-0.29c-0.03-0.04-0.05-0.09-0.04-0.14
		c0-0.05,0.03-0.09,0.07-0.13l0.43-0.35c0.04-0.03,0.09-0.05,0.14-0.04c0.05,0,0.09,0.03,0.13,0.07l0.23,0.29
		c0.03,0.04,0.05,0.09,0.04,0.14c0,0.05-0.03,0.09-0.07,0.13l-0.43,0.35C7.91,17.8,7.86,17.81,7.82,17.81z M8.02,16.88
		c-0.02,0-0.05,0.01-0.07,0.02l-0.43,0.35c-0.02,0.02-0.04,0.04-0.04,0.07c0,0.03,0.01,0.06,0.02,0.08l0.23,0.29
		c0.04,0.05,0.11,0.05,0.15,0.02l0.43-0.35c0.02-0.02,0.04-0.04,0.04-0.07c0-0.03-0.01-0.06-0.02-0.08l-0.23-0.29
		c-0.02-0.02-0.04-0.04-0.07-0.04C8.03,16.88,8.02,16.88,8.02,16.88z"/>
</g>
<g>
	<path class="st0" d="M7.18,16.71c-0.08,0-0.15-0.05-0.18-0.13l-0.1-0.35c-0.01-0.05-0.01-0.1,0.01-0.14
		c0.02-0.04,0.06-0.08,0.11-0.09l0.54-0.16c0.1-0.03,0.2,0.03,0.23,0.13l0.1,0.35c0.01,0.05,0.01,0.1-0.01,0.14
		c-0.02,0.04-0.06,0.08-0.11,0.09L7.23,16.7C7.21,16.7,7.19,16.71,7.18,16.71z M7.04,16.06c-0.06,0.02-0.09,0.08-0.07,0.13l0.1,0.35
		c0.01,0.03,0.03,0.05,0.05,0.06c0.03,0.01,0.05,0.02,0.08,0.01l0.54-0.16c0.06-0.02,0.09-0.08,0.07-0.13l-0.1-0.35
		c-0.02-0.06-0.08-0.09-0.13-0.07L7.04,16.06z"/>
</g>
<g>
	<path class="st0" d="M14.05,15.11h-0.56c-0.1,0-0.19-0.08-0.19-0.19v-0.37c0-0.1,0.08-0.19,0.19-0.19h0.56
		c0.1,0,0.19,0.08,0.19,0.19v0.37C14.23,15.03,14.15,15.11,14.05,15.11z M13.49,14.45c-0.06,0-0.11,0.05-0.11,0.11v0.37
		c0,0.06,0.05,0.11,0.11,0.11h0.56c0.06,0,0.11-0.05,0.11-0.11v-0.37c0-0.06-0.05-0.11-0.11-0.11H13.49z"/>
</g>
<g>
	<path class="st0" d="M14.05,16.32h-0.56c-0.1,0-0.19-0.08-0.19-0.19v-0.37c0-0.1,0.08-0.19,0.19-0.19h0.56
		c0.1,0,0.19,0.08,0.19,0.19v0.37C14.23,16.24,14.15,16.32,14.05,16.32z M13.49,15.65c-0.06,0-0.11,0.05-0.11,0.11v0.37
		c0,0.06,0.05,0.11,0.11,0.11h0.56c0.06,0,0.11-0.05,0.11-0.11v-0.37c0-0.06-0.05-0.11-0.11-0.11H13.49z"/>
</g>
<g>
	<path class="st0" d="M14.05,17.53h-0.56c-0.1,0-0.19-0.08-0.19-0.19v-0.37c0-0.1,0.08-0.19,0.19-0.19h0.56
		c0.1,0,0.19,0.08,0.19,0.19v0.37C14.23,17.44,14.15,17.53,14.05,17.53z M13.49,16.86c-0.06,0-0.11,0.05-0.11,0.11v0.37
		c0,0.06,0.05,0.11,0.11,0.11h0.56c0.06,0,0.11-0.05,0.11-0.11v-0.37c0-0.06-0.05-0.11-0.11-0.11H13.49z"/>
</g>
<g>
	<path class="st1" d="M13.26,18.2c0.08,0,0.15-0.07,0.15-0.15v-3.99c0-0.08-0.07-0.15-0.15-0.15H13.2l0-4.25h-0.74l0,5.86
		c0,0.49-0.19,0.94-0.52,1.28c-0.37,0.4-0.91,0.64-1.51,0.64c-1.12,0-2.03-0.86-2.03-1.92v-2.94H7.66v2.94
		c0,1.45,1.24,2.62,2.77,2.62c0.6,0,1.16-0.18,1.61-0.49c0.08,0.05,0.2,0.12,0.3,0.21c0.17,0.14,0.29,0.32,0.33,0.34
		C12.83,18.21,13.26,18.2,13.26,18.2z"/>
</g>
<g>
	
		<rect x="10.36" y="7.13" transform="matrix(-1.836970e-16 1 -1 -1.836970e-16 20.3355 -0.7754)" class="st2" width="0.39" height="5.31"/>
</g>
<g>
	<g>
		<path class="st0" d="M4.41,22.05H3.77c-0.01,0-0.02,0-0.03,0c-0.05-0.11-0.16-0.2-0.3-0.2H2.86c-0.18,0-0.33,0.15-0.33,0.33v0.48
			c0,0.18,0.14,0.33,0.33,0.33h0.58c0.14,0,0.25-0.08,0.3-0.2c0.01,0,0.02,0,0.03,0h0.64c0.1,0,0.19-0.08,0.19-0.19v-0.37
			C4.6,22.14,4.52,22.05,4.41,22.05z M4.52,22.61c0,0.06-0.05,0.11-0.11,0.11H3.77c0,0-0.01,0-0.01,0c0-0.02,0.01-0.03,0.01-0.05
			v-0.48c0-0.02,0-0.03,0-0.05c0,0,0.01,0,0.01,0h0.64c0.06,0,0.11,0.05,0.11,0.11V22.61z"/>
	</g>
</g>
<g>
	<g>
		<path class="st0" d="M3.76,20.93v0.47c0,0.02,0,0.04-0.01,0.05c0,0.03-0.01,0.05-0.02,0.08c-0.05,0.11-0.16,0.2-0.3,0.2H2.86
			c-0.18,0-0.33-0.15-0.33-0.33v-0.47c0-0.18,0.14-0.33,0.33-0.33h0.58c0.14,0,0.25,0.08,0.3,0.2c0.01,0.02,0.02,0.05,0.02,0.08
			C3.76,20.9,3.76,20.92,3.76,20.93z"/>
	</g>
	<g>
		<path class="st0" d="M4.41,20.8H3.77c-0.01,0-0.02,0-0.03,0c0.01,0.02,0.02,0.05,0.02,0.08c0,0,0.01,0,0.01,0h0.64
			c0.06,0,0.11,0.05,0.11,0.11v0.37c0,0.06-0.05,0.11-0.11,0.11H3.77c0,0-0.01,0-0.01,0c0,0.03-0.01,0.05-0.02,0.08
			c0.01,0,0.02,0,0.03,0h0.64c0.1,0,0.19-0.08,0.19-0.19v-0.37C4.6,20.88,4.52,20.8,4.41,20.8z"/>
	</g>
</g>
<g>
	<g>
		<path class="st0" d="M4.41,15.98H3.77c-0.01,0-0.02,0-0.03,0c-0.05-0.12-0.16-0.2-0.3-0.2H2.86c-0.09,0-0.16,0.03-0.22,0.09v0.95
			c0.06,0.05,0.13,0.09,0.22,0.09h0.58c0.14,0,0.25-0.08,0.3-0.2c0.01,0,0.02,0,0.03,0h0.64c0.1,0,0.19-0.08,0.19-0.19v-0.37
			C4.6,16.06,4.52,15.98,4.41,15.98z M4.52,16.53c0,0.06-0.05,0.11-0.11,0.11H3.77c0,0-0.01,0-0.01,0c0-0.02,0.01-0.03,0.01-0.05
			v-0.47c0-0.02,0-0.04,0-0.05c0,0,0.01,0,0.01,0h0.64c0.06,0,0.11,0.05,0.11,0.11V16.53z"/>
		<path class="st0" d="M2.64,15.87v0.95c-0.06-0.06-0.11-0.14-0.11-0.24v-0.47C2.54,16.02,2.58,15.93,2.64,15.87z"/>
	</g>
</g>
<g>
	<path class="st1" d="M8.03,33.64c-0.38,0-0.68-0.31-0.68-0.68v-0.03h0.81c0.12,0,0.21-0.1,0.21-0.21v-2.68
		c0-0.12-0.1-0.21-0.21-0.21H7.35V29.8c0-0.19,0.08-0.36,0.2-0.48c0.12-0.12,0.29-0.2,0.48-0.2c0.38,0,0.68,0.31,0.68,0.68v3.16
		c0,0.19-0.08,0.36-0.2,0.48C8.39,33.56,8.22,33.64,8.03,33.64z"/>
</g>
<g>
	<g>
		<g>
			<path class="st0" d="M17.17,36.13h-0.58c-0.13,0-0.25,0.08-0.3,0.2c-0.01,0-0.02,0-0.03,0h-0.64c-0.1,0-0.19,0.08-0.19,0.19v0.37
				c0,0.1,0.08,0.19,0.19,0.19h0.64c0.01,0,0.02,0,0.03,0c0.05,0.11,0.16,0.2,0.3,0.2h0.58c0.18,0,0.33-0.15,0.33-0.33v-0.48
				C17.5,36.28,17.35,36.13,17.17,36.13z M16.27,36.99c0,0-0.01,0-0.01,0h-0.64c-0.06,0-0.11-0.05-0.11-0.11v-0.37
				c0-0.06,0.05-0.11,0.11-0.11h0.64c0,0,0.01,0,0.01,0c0,0.02-0.01,0.03-0.01,0.05v0.48C16.27,36.95,16.27,36.97,16.27,36.99z"/>
		</g>
	</g>
	<g>
		<g>
			<path class="st0" d="M17.17,39.77h-0.58c-0.13,0-0.25,0.08-0.3,0.2c-0.01,0-0.02,0-0.03,0h-0.64c-0.1,0-0.19,0.08-0.19,0.19v0.37
				c0,0.1,0.08,0.19,0.19,0.19h0.64c0.01,0,0.02,0,0.03,0c0.05,0.11,0.16,0.2,0.3,0.2h0.58c0.18,0,0.33-0.15,0.33-0.33V40.1
				C17.5,39.92,17.35,39.77,17.17,39.77z M16.26,40.63h-0.64c-0.06,0-0.11-0.05-0.11-0.11v-0.37c0-0.06,0.05-0.11,0.11-0.11h0.64
				c0,0,0.01,0,0.01,0c0,0.02,0,0.03,0,0.05v0.48c0,0.02,0,0.04,0.01,0.05C16.27,40.63,16.27,40.63,16.26,40.63z"/>
		</g>
	</g>
	<g>
		<g>
			<path class="st0" d="M17.17,41.94h-0.58c-0.13,0-0.25,0.08-0.3,0.2c-0.01,0-0.02,0-0.03,0h-0.64c-0.1,0-0.19,0.08-0.19,0.19v0.37
				c0,0.1,0.08,0.19,0.19,0.19h0.64c0.01,0,0.02,0,0.03,0c0.05,0.11,0.16,0.2,0.3,0.2h0.58c0.18,0,0.33-0.15,0.33-0.33v-0.48
				C17.5,42.08,17.35,41.94,17.17,41.94z M16.26,42.79h-0.64c-0.06,0-0.11-0.05-0.11-0.11v-0.37c0-0.06,0.05-0.11,0.11-0.11h0.64
				c0,0,0.01,0,0.01,0c0,0.02,0,0.03,0,0.05v0.48c0,0.02,0,0.04,0.01,0.05C16.27,42.79,16.27,42.79,16.26,42.79z"/>
		</g>
	</g>
	<g>
		<g>
			<path class="st0" d="M17.17,37.44h-0.58c-0.13,0-0.25,0.08-0.3,0.2c-0.01,0-0.02,0-0.03,0h-0.64c-0.1,0-0.19,0.08-0.19,0.19v0.37
				c0,0.1,0.08,0.19,0.19,0.19h0.64c0.01,0,0.02,0,0.03,0c0.05,0.11,0.16,0.2,0.3,0.2h0.58c0.18,0,0.33-0.15,0.33-0.33v-0.48
				C17.5,37.59,17.35,37.44,17.17,37.44z M16.26,38.3h-0.64c-0.06,0-0.11-0.05-0.11-0.11v-0.37c0-0.06,0.05-0.11,0.11-0.11h0.64
				c0,0,0.01,0,0.01,0c0,0.02-0.01,0.03-0.01,0.05v0.48c0,0.02,0,0.03,0,0.05C16.27,38.3,16.27,38.3,16.26,38.3z"/>
		</g>
	</g>
</g>
<g>
	<g>
		<path class="st0" d="M4.41,19.17H3.77c-0.01,0-0.02,0-0.03,0c-0.05-0.11-0.16-0.2-0.3-0.2H2.86c-0.18,0-0.33,0.15-0.33,0.33v0.48
			c0,0.18,0.14,0.33,0.33,0.33h0.58c0.14,0,0.25-0.08,0.3-0.2c0.01,0,0.02,0,0.03,0h0.64c0.1,0,0.19-0.08,0.19-0.19v-0.37
			C4.6,19.25,4.52,19.17,4.41,19.17z M4.52,19.72c0,0.06-0.05,0.11-0.11,0.11H3.77c0,0-0.01,0-0.01,0c0-0.02,0.01-0.03,0.01-0.05
			V19.3c0-0.02,0-0.04-0.01-0.05c0,0,0.01,0,0.01,0h0.64c0.06,0,0.11,0.05,0.11,0.11V19.72z"/>
	</g>
</g>
<g>
	<g>
		<path class="st1" d="M6.64,28.62c0-1.26,1.02-2.28,2.28-2.28c1.26,0,2.28,1.02,2.28,2.28s-1.02,2.28-2.28,2.28
			C7.66,30.89,6.64,29.87,6.64,28.62z M10.89,28.62c0-1.09-0.89-1.98-1.98-1.98s-1.98,0.89-1.98,1.98s0.89,1.98,1.98,1.98
			S10.89,29.71,10.89,28.62z"/>
	</g>
</g>
<g>
	<g>
		<path class="st0" d="M3.76,18.05v0.48c0,0.02,0,0.04-0.01,0.05c0,0.03-0.01,0.05-0.02,0.08c-0.05,0.11-0.16,0.2-0.3,0.2H2.86
			c-0.18,0-0.33-0.15-0.33-0.33v-0.48c0-0.18,0.14-0.33,0.33-0.33h0.58c0.14,0,0.25,0.08,0.3,0.2c0.01,0.02,0.02,0.05,0.02,0.08
			C3.76,18.02,3.76,18.03,3.76,18.05z"/>
	</g>
	<g>
		<path class="st0" d="M4.41,17.92H3.77c-0.01,0-0.02,0-0.03,0c0.01,0.02,0.02,0.05,0.02,0.08c0,0,0.01,0,0.01,0h0.64
			c0.06,0,0.11,0.05,0.11,0.11v0.37c0,0.06-0.05,0.11-0.11,0.11H3.77c0,0-0.01,0-0.01,0c0,0.03-0.01,0.05-0.02,0.08
			c0.01,0,0.02,0,0.03,0h0.64c0.1,0,0.19-0.08,0.19-0.19v-0.37C4.6,18,4.52,17.92,4.41,17.92z"/>
	</g>
</g>
<g>
	<path class="st1" d="M18.31,35.42v8.28h-0.34c-0.3,0-0.55-0.25-0.55-0.55v-7.18c0-0.3,0.25-0.55,0.55-0.55H18.31z"/>
</g>
<g>
	<path class="st1" d="M2.64,37.11v5.19c0,0.3-0.25,0.55-0.55,0.55H1.55v-6.29H2.1C2.4,36.57,2.64,36.81,2.64,37.11z"/>
</g>
<g>
	<path class="st1" d="M2.64,15.78v7.18c0,0.3-0.25,0.55-0.55,0.55H1.55v-8.27H2.1C2.4,15.24,2.64,15.48,2.64,15.78z"/>
</g>
<g>
	<rect x="1.17" y="44.21" class="st2" width="0.39" height="0"/>
</g>
<g>
	
		<rect x="6.07" y="8.04" transform="matrix(-1.836970e-16 1 -1 -1.836970e-16 16.0405 0.4274)" class="st2" width="3.47" height="0.39"/>
</g>
<g>
	<path class="st0" d="M11.4,35.53H9.16c-0.14,0-0.25-0.11-0.25-0.25v-1.04c0-0.14,0.11-0.25,0.25-0.25h2.23
		c0.14,0,0.25,0.11,0.25,0.25v1.04C11.64,35.42,11.53,35.53,11.4,35.53z M9.16,34.16c-0.05,0-0.09,0.04-0.09,0.09v1.04
		c0,0.05,0.04,0.09,0.09,0.09h2.23c0.05,0,0.09-0.04,0.09-0.09v-1.04c0-0.05-0.04-0.09-0.09-0.09H9.16z"/>
</g>
<g>
	<polygon class="st2" points="18.66,27.37 18.27,27.37 18.27,9.97 14.89,9.97 14.89,9.59 18.66,9.59 	"/>
</g>
<g>
	<rect x="18.31" y="44.21" class="st2" width="0.39" height="0"/>
</g>
<g>
	<g>
		<path class="st2" d="M15.72,32.37c0.05-0.01,1.23-0.14,2.07,0.66c0.83,0.79,0.89,1.98,0.89,2.03l-0.4,0l0.2-0.01l-0.2,0.01
			c0-0.01-0.05-1.07-0.76-1.74c-0.7-0.66-1.77-0.55-1.78-0.55L15.72,32.37z"/>
	</g>
</g>
<g>
	<g>
		<path class="st2" d="M15.68,30.35l0.01-0.4c0.01,0,1.09,0.11,1.79-0.55c0.71-0.67,0.76-1.73,0.76-1.74l0.4-0.01
			c0,0.05-0.06,1.25-0.89,2.04C16.91,30.48,15.73,30.35,15.68,30.35z"/>
	</g>
</g>
<g>
	<g>
		<path class="st0" d="M13.86,42.26l-0.39-0.39c0.06-0.1,0.06-0.22,0-0.32l0.39-0.38c0.03-0.03,0.05-0.08,0.05-0.13
			c0-0.05-0.02-0.1-0.05-0.13l-0.26-0.26c-0.07-0.07-0.19-0.07-0.26,0l-0.38,0.39c-0.1-0.06-0.22-0.06-0.32,0l-0.39-0.39
			c-0.07-0.07-0.19-0.07-0.27,0l-0.26,0.26c-0.03,0.04-0.05,0.08-0.05,0.13s0.02,0.1,0.05,0.13l0.39,0.39
			c-0.06,0.1-0.06,0.22,0,0.32l-0.38,0.38c-0.07,0.07-0.07,0.19,0,0.26l0.26,0.26c0.03,0.03,0.08,0.05,0.13,0.05
			c0.05,0,0.1-0.02,0.13-0.05l0.38-0.38c0.1,0.06,0.22,0.06,0.32,0l0.39,0.39c0.03,0.04,0.08,0.05,0.13,0.05
			c0.05,0,0.09-0.02,0.13-0.05l0.26-0.26c0.03-0.04,0.05-0.08,0.05-0.13C13.91,42.34,13.89,42.3,13.86,42.26z M11.77,41.11
			c-0.02-0.02-0.03-0.05-0.03-0.08c0-0.03,0.01-0.06,0.03-0.08l0.26-0.26c0.04-0.04,0.11-0.04,0.15,0l0.38,0.38c0,0,0,0,0,0
			l-0.41,0.41c0,0,0,0,0,0L11.77,41.11z M12.18,42.73c-0.04,0.04-0.11,0.04-0.15,0l-0.26-0.26c-0.04-0.04-0.04-0.11,0-0.15
			l0.37-0.38c0,0,0,0,0,0.01l0.41,0.41c0,0,0,0,0.01,0L12.18,42.73z M13.38,40.7c0.02-0.02,0.05-0.03,0.08-0.03
			c0.03,0,0.06,0.01,0.08,0.03l0.26,0.26c0.04,0.04,0.04,0.11,0,0.15l-0.37,0.38c0,0,0,0,0-0.01l-0.41-0.41c0,0,0,0-0.01,0
			L13.38,40.7z M13.8,42.47l-0.26,0.26c-0.04,0.04-0.11,0.04-0.15,0l-0.38-0.38c0,0,0,0,0,0l0.41-0.41c0,0,0,0,0,0l0.38,0.38
			c0.02,0.02,0.03,0.05,0.03,0.08C13.84,42.42,13.82,42.45,13.8,42.47z"/>
	</g>
</g>
<g>
	<g>
		<path class="st0" d="M12.23,36.92c-0.07-0.07-0.19-0.07-0.26,0l-0.26,0.26c-0.03,0.04-0.05,0.08-0.05,0.13
			c0,0.05,0.02,0.1,0.05,0.13l0.39,0.39c0.01-0.02,0.03-0.05,0.05-0.06l-0.38-0.38c-0.02-0.02-0.03-0.05-0.03-0.08
			c0-0.03,0.01-0.06,0.03-0.08l0.26-0.26c0.04-0.04,0.11-0.04,0.15,0l0.38,0.38c0.02-0.02,0.04-0.03,0.06-0.05L12.23,36.92z"/>
	</g>
	<g>
		<path class="st0" d="M13.86,38.54l-0.39-0.39c-0.01,0.02-0.03,0.05-0.05,0.06l0.38,0.38c0.02,0.02,0.03,0.05,0.03,0.08
			c0,0.03-0.01,0.06-0.03,0.08l-0.26,0.26c-0.04,0.04-0.11,0.04-0.15,0l-0.38-0.38c-0.02,0.02-0.04,0.04-0.06,0.05l0.39,0.39
			c0.03,0.04,0.08,0.05,0.13,0.05c0.05,0,0.09-0.02,0.13-0.05l0.26-0.26c0.03-0.04,0.05-0.08,0.05-0.13
			C13.91,38.62,13.89,38.58,13.86,38.54z"/>
	</g>
	<g>
		<path class="st0" d="M13.47,38.15c-0.01,0.02-0.03,0.05-0.05,0.06c0,0,0,0,0,0l-0.41,0.41c0,0,0,0,0,0
			c-0.02,0.02-0.04,0.04-0.06,0.05c-0.1,0.06-0.22,0.06-0.32,0c-0.02-0.01-0.04-0.03-0.06-0.05c0,0,0,0-0.01,0l-0.41-0.41
			c0,0,0,0,0-0.01c-0.02-0.02-0.03-0.04-0.05-0.06c-0.06-0.1-0.06-0.22,0-0.32c0.01-0.02,0.03-0.05,0.05-0.06c0,0,0,0,0,0l0.41-0.41
			c0,0,0,0,0,0c0.02-0.02,0.04-0.03,0.06-0.05c0.1-0.06,0.22-0.06,0.32,0c0.02,0.01,0.04,0.03,0.06,0.05c0,0,0,0,0.01,0l0.41,0.41
			c0,0,0,0,0,0.01c0.02,0.02,0.03,0.04,0.05,0.06C13.53,37.93,13.53,38.05,13.47,38.15z"/>
	</g>
	<g>
		<path class="st0" d="M12.56,38.63L12.18,39c-0.04,0.04-0.11,0.04-0.15,0l-0.26-0.26c-0.04-0.04-0.04-0.11,0-0.15l0.37-0.38
			c-0.02-0.02-0.03-0.04-0.05-0.06l-0.38,0.38c-0.03,0.03-0.05,0.08-0.05,0.13c0,0.05,0.02,0.1,0.05,0.13l0.26,0.26
			c0.03,0.03,0.08,0.05,0.13,0.05c0.05,0,0.1-0.02,0.13-0.05l0.38-0.38C12.6,38.66,12.58,38.65,12.56,38.63z"/>
	</g>
	<g>
		<path class="st0" d="M13.85,37.18l-0.26-0.26c-0.07-0.07-0.19-0.07-0.26,0l-0.38,0.39c0.02,0.01,0.04,0.03,0.06,0.05l0.38-0.37
			c0.02-0.02,0.05-0.03,0.08-0.03c0.03,0,0.06,0.01,0.08,0.03l0.26,0.26c0.04,0.04,0.04,0.11,0,0.15l-0.37,0.38
			c0.02,0.02,0.03,0.04,0.05,0.06l0.39-0.38c0.03-0.03,0.05-0.08,0.05-0.13C13.91,37.27,13.89,37.22,13.85,37.18z"/>
	</g>
</g>
<g>
	<polygon class="st2" points="18.7,35.35 18.7,44.21 1.17,44.21 1.17,1.01 1.55,1.01 1.55,1.02 8,1.02 8,1.41 8,1.41 8,3.74 
		7.63,3.74 7.63,1.33 1.55,1.33 1.55,23.7 5.65,23.7 5.65,24.08 1.55,24.08 1.55,35.28 5.8,35.28 5.8,27.77 6.18,27.77 6.18,35.28 
		13.04,35.28 13.04,35.67 1.55,35.67 1.55,43.82 18.31,43.82 18.31,35.35 	"/>
</g>
<g>
	<circle class="st0" cx="12.38" cy="34.74" r="0.47"/>
</g>
<g>
	<g>
		<path class="st0" d="M7.4,42.26l-0.39-0.39c0.06-0.1,0.06-0.22,0-0.32l0.39-0.38c0.03-0.03,0.05-0.08,0.05-0.13
			c0-0.05-0.02-0.1-0.05-0.13l-0.26-0.26c-0.07-0.07-0.19-0.07-0.26,0l-0.38,0.39c-0.1-0.06-0.22-0.06-0.32,0l-0.39-0.39
			c-0.07-0.07-0.19-0.07-0.27,0L5.25,40.9c-0.03,0.04-0.05,0.08-0.05,0.13s0.02,0.1,0.05,0.13l0.39,0.39c-0.06,0.1-0.06,0.22,0,0.32
			l-0.38,0.38c-0.07,0.07-0.07,0.19,0,0.26l0.26,0.26c0.03,0.03,0.08,0.05,0.13,0.05s0.1-0.02,0.13-0.05l0.38-0.38
			c0.1,0.06,0.22,0.06,0.32,0l0.39,0.39c0.03,0.04,0.08,0.05,0.13,0.05c0.05,0,0.09-0.02,0.13-0.05l0.26-0.26
			c0.03-0.04,0.05-0.08,0.05-0.13C7.45,42.34,7.43,42.3,7.4,42.26z M5.31,41.11c-0.02-0.02-0.03-0.05-0.03-0.08
			c0-0.03,0.01-0.06,0.03-0.08l0.26-0.26c0.04-0.04,0.11-0.04,0.15,0l0.38,0.38c0,0,0,0,0,0l-0.41,0.41c0,0,0,0,0,0L5.31,41.11z
			 M5.73,42.73c-0.04,0.04-0.11,0.04-0.15,0l-0.26-0.26c-0.04-0.04-0.04-0.11,0-0.15l0.37-0.38c0,0,0,0,0,0.01l0.41,0.41
			c0,0,0,0,0.01,0L5.73,42.73z M6.93,40.7c0.02-0.02,0.05-0.03,0.08-0.03c0.03,0,0.06,0.01,0.08,0.03l0.26,0.26
			c0.04,0.04,0.04,0.11,0,0.15l-0.37,0.38c0,0,0,0,0-0.01l-0.41-0.41c0,0,0,0-0.01,0L6.93,40.7z M7.35,42.47l-0.26,0.26
			c-0.04,0.04-0.11,0.04-0.15,0l-0.38-0.38c0,0,0,0,0,0l0.41-0.41c0,0,0,0,0,0l0.38,0.38c0.02,0.02,0.03,0.05,0.03,0.08
			C7.38,42.42,7.37,42.45,7.35,42.47z"/>
	</g>
</g>
</svg>
