<?xml version="1.0" encoding="utf-8"?>
<!-- Generator: Adobe Illustrator 24.0.2, SVG Export Plug-In . SVG Version: 6.00 Build 0)  -->
<svg version="1.1" id="Layer_1" xmlns="http://www.w3.org/2000/svg" xmlns:xlink="http://www.w3.org/1999/xlink" x="0px" y="0px"
	 viewBox="0 0 151 353.9" style="enable-background:new 0 0 151 353.9;" xml:space="preserve">
<style type="text/css">
	.st0{fill:#367F33;}
	.st1{fill:#085C5E;}
	.st2{fill:#4A494A;}
</style>
<image style="display:none;overflow:visible;enable-background:new    ;" width="1094" height="729" xlink:href="6E4D4F93.jpeg"  transform="matrix(0.48 0 0 0.48 90.0383 252.9547)">
</image>
<path class="st0" d="M126.1,93v-3.9c0-0.8-0.7-1.5-1.5-1.5h-3c-0.8,0-1.5,0.7-1.5,1.5V93c-0.9,0.4-1.5,1.3-1.5,2.3v4.5
	c0,1,0.6,2,1.5,2.3v3.9c0,0.8,0.7,1.5,1.5,1.5h3c0.8,0,1.5-0.7,1.5-1.5v-3.9c0.9-0.4,1.5-1.3,1.5-2.3v-4.5
	C127.7,94.3,127,93.4,126.1,93z M125.5,106.1c0,0.5-0.4,0.8-0.8,0.8h-3c-0.5,0-0.9-0.4-0.9-0.8v-3.7c0.1,0,0.3,0,0.4,0h3.8
	c0.1,0,0.3,0,0.4,0V106.1z M125.1,92.8h-3.8c-0.2,0-0.3,0-0.4,0.1v-3.7c0-0.5,0.4-0.9,0.9-0.9h3c0.5,0,0.8,0.4,0.8,0.9v3.7
	C125.4,92.8,125.2,92.8,125.1,92.8z"/>
<path class="st1" d="M59.1,11.8v62.6h-8.6V20.9H36.9c-2.2-4.5-6.9-7.6-12.2-7.6c-5.4,0-10,3.1-12.2,7.6h-1.1v-9.1H59.1z"/>
<path class="st0" d="M137.5,93v-3.9c0-0.8-0.7-1.5-1.5-1.5h-3c-0.8,0-1.5,0.7-1.5,1.5V93c-0.9,0.4-1.5,1.3-1.5,2.3v4.5
	c0,1,0.6,2,1.5,2.3v3.9c0,0.8,0.6,1.5,1.5,1.5h3c0.8,0,1.5-0.7,1.5-1.5v-3.9c0.9-0.4,1.5-1.3,1.5-2.3v-4.5
	C139.1,94.3,138.4,93.4,137.5,93z M132.3,89.1c0-0.5,0.4-0.9,0.8-0.9h3c0.5,0,0.9,0.4,0.9,0.9v3.7c-0.1,0-0.3-0.1-0.4-0.1h-3.8
	c-0.1,0-0.3,0-0.4,0V89.1z M136.9,106.1c0,0.5-0.4,0.8-0.9,0.8h-3c-0.5,0-0.8-0.4-0.8-0.8v-3.7c0.1,0,0.3,0,0.4,0h3.8
	c0.2,0,0.3,0,0.4,0V106.1z"/>
<path class="st0" d="M126.1,187.8v-3.9c0-0.8-0.7-1.5-1.5-1.5h-3c-0.8,0-1.5,0.6-1.5,1.5v3.9c-0.9,0.4-1.5,1.3-1.5,2.3v4.5
	c0,1.1,0.6,2,1.5,2.3v3.9c0,0.8,0.7,1.5,1.5,1.5h3c0.8,0,1.5-0.7,1.5-1.5V197c0.9-0.4,1.5-1.3,1.5-2.3v-4.5
	C127.7,189.1,127,188.2,126.1,187.8z M125.5,200.9c0,0.5-0.4,0.8-0.8,0.8h-3c-0.5,0-0.9-0.4-0.9-0.8v-3.7c0.1,0,0.3,0,0.4,0h3.8
	c0.1,0,0.3,0,0.4,0V200.9z M125.1,187.5h-3.8c-0.2,0-0.3,0-0.4,0.1v-3.7c0-0.5,0.4-0.8,0.9-0.8h3c0.5,0,0.8,0.4,0.8,0.8v3.7
	C125.4,187.6,125.2,187.5,125.1,187.5z"/>
<path class="st0" d="M137.5,187.8v-3.9c0-0.8-0.7-1.5-1.5-1.5h-3c-0.8,0-1.5,0.6-1.5,1.5v3.9c-0.9,0.4-1.5,1.3-1.5,2.3v4.5
	c0,1,0.6,2,1.5,2.3v3.9c0,0.8,0.6,1.5,1.5,1.5h3c0.8,0,1.5-0.7,1.5-1.5V197c0.9-0.4,1.5-1.3,1.5-2.3v-4.5
	C139.1,189.1,138.4,188.2,137.5,187.8z M132.3,183.9c0-0.5,0.4-0.8,0.8-0.8h3c0.5,0,0.9,0.4,0.9,0.8v3.7c-0.1,0-0.3-0.1-0.4-0.1
	h-3.8c-0.1,0-0.3,0-0.4,0V183.9z M136.9,200.9c0,0.5-0.4,0.8-0.9,0.8h-3c-0.5,0-0.8-0.4-0.8-0.8v-3.7c0.1,0,0.3,0,0.4,0h3.8
	c0.1,0,0.3,0,0.4,0V200.9z"/>
<path class="st0" d="M83.7,309.3c0.7,0,1.2-0.6,1.2-1.2v-3.8c0-0.7-0.6-1.2-1.2-1.2H79c-0.4-1.2-1.3-2.1-2.5-2.5v-4.6
	c0-0.7-0.6-1.2-1.3-1.2h-3.8c-0.7,0-1.3,0.6-1.3,1.2v4.6c-1.2,0.4-2.1,1.4-2.5,2.5h-4.4c-0.7,0-1.3,0.6-1.3,1.2v3.8
	c0,0.7,0.6,1.2,1.3,1.2h4.1v2.9h-4.2c-0.7,0-1.3,0.6-1.3,1.3v3.8c0,0.7,0.6,1.3,1.3,1.3h4.2v2.8h-4.2c-0.7,0-1.2,0.6-1.2,1.3v3.8
	c0,0.7,0.6,1.3,1.2,1.3h4.4c0.4,1.2,1.4,2.1,2.5,2.5v4.7c0,0.7,0.6,1.2,1.3,1.2h3.8c0.7,0,1.3-0.6,1.3-1.2v-4.7
	c1.2-0.4,2.1-1.3,2.5-2.5h4.6c0.7,0,1.2-0.6,1.2-1.3v-3.8c0-0.7-0.6-1.3-1.2-1.3h-4.3v-2.8h4.2c0.7,0,1.3-0.6,1.3-1.3v-3.8
	c0-0.7-0.6-1.3-1.3-1.3h-4.2v-2.9H83.7z M63.3,308.7c-0.4,0-0.6-0.3-0.6-0.6v-3.8c0-0.3,0.3-0.6,0.6-0.6h4.2
	c-0.1,0.3-0.1,0.6-0.1,0.9v4.2L63.3,308.7L63.3,308.7z M63.2,317.9c-0.4,0-0.6-0.3-0.6-0.6v-3.8c0-0.4,0.3-0.6,0.6-0.6h4.2v5.1
	L63.2,317.9L63.2,317.9z M63.3,327c-0.4,0-0.6-0.3-0.6-0.6v-3.8c0-0.4,0.3-0.6,0.6-0.6h4.2v4.2c0,0.3,0,0.6,0.1,0.9H63.3L63.3,327z
	 M75.9,334.9c0,0.3-0.3,0.6-0.6,0.6h-3.8c-0.4,0-0.6-0.3-0.6-0.6v-4.5c0.3,0.1,0.6,0.1,0.9,0.1H75c0.3,0,0.6,0,0.9-0.1V334.9z
	 M75,300.2h-3.3c-0.3,0-0.6,0-0.9,0.1v-4.5c0-0.3,0.3-0.6,0.6-0.6h3.8c0.4,0,0.6,0.3,0.6,0.6v4.5C75.6,300.2,75.3,300.2,75,300.2z
	 M83.6,321.9c0.3,0,0.6,0.3,0.6,0.6v3.8c0,0.4-0.3,0.6-0.6,0.6h-4.4c0.1-0.3,0.1-0.6,0.1-0.9v-4.2L83.6,321.9L83.6,321.9z
	 M83.5,312.8c0.4,0,0.6,0.3,0.6,0.6v3.8c0,0.4-0.3,0.6-0.6,0.6h-4.2v-5.1L83.5,312.8L83.5,312.8z M79.2,303.6h4.5
	c0.4,0,0.6,0.3,0.6,0.6v3.8c0,0.3-0.3,0.6-0.6,0.6h-4.4v-4.2C79.3,304.2,79.3,303.9,79.2,303.6z"/>
<path class="st0" d="M137.9,124.4v-3.9c0-0.8-0.7-1.5-1.5-1.5h-3c-0.8,0-1.5,0.7-1.5,1.5v3.9c-0.9,0.4-1.5,1.3-1.5,2.4v4.5
	c0,1,0.6,2,1.5,2.3v3.9c0,0.8,0.6,1.5,1.5,1.5h3c0.8,0,1.5-0.7,1.5-1.5v-3.9c0.9-0.4,1.5-1.3,1.5-2.3v-4.5
	C139.5,125.7,138.8,124.7,137.9,124.4z M137.3,137.5c0,0.5-0.4,0.8-0.8,0.8h-3c-0.5,0-0.8-0.4-0.8-0.8v-3.7c0.1,0,0.3,0,0.4,0h3.8
	c0.2,0,0.3,0,0.4,0V137.5z M137.3,124.2c-0.1,0-0.3-0.1-0.4-0.1h-3.8c-0.1,0-0.3,0-0.4,0v-3.7c0-0.5,0.4-0.8,0.8-0.8h3
	c0.5,0,0.8,0.4,0.8,0.8V124.2z"/>
<path class="st0" d="M33.8,317.5h-5.1c-0.1,0-0.2,0-0.3,0c-0.4-0.9-1.3-1.6-2.3-1.6h-4.5c-1.4,0-2.6,1.2-2.6,2.6v3.7
	c0,1.4,1.1,2.6,2.6,2.6h4.5c1.1,0,2-0.6,2.3-1.5c0.1,0,0.2,0,0.3,0h5.1c0.8,0,1.5-0.7,1.5-1.5V319C35.3,318.1,34.6,317.5,33.8,317.5
	z M34.7,321.9c0,0.5-0.4,0.8-0.8,0.8h-5.1c0,0,0,0-0.1,0c0-0.1,0-0.3,0-0.4v-3.7c0-0.1,0-0.3,0-0.4c0,0,0,0,0.1,0h5.1
	c0.5,0,0.8,0.4,0.8,0.9V321.9z"/>
<path class="st0" d="M33.8,327.2h-5.1c-0.1,0-0.2,0-0.3,0c-0.4-0.9-1.3-1.5-2.3-1.5h-4.5c-1.4,0-2.6,1.2-2.6,2.6v3.7
	c0,1.4,1.1,2.6,2.6,2.6h4.5c1.1,0,2-0.6,2.3-1.5c0.1,0,0.2,0,0.3,0h5.1c0.8,0,1.5-0.7,1.5-1.5v-2.9
	C35.3,327.8,34.6,327.2,33.8,327.2z M34.7,331.5c0,0.5-0.4,0.9-0.8,0.9h-5.1c0,0-0.1,0-0.1,0c0-0.1,0.1-0.3,0.1-0.4v-3.7
	c0-0.1,0-0.3,0-0.4c0,0,0.1,0,0.1,0h5.1c0.5,0,0.8,0.4,0.8,0.8V331.5z"/>
<path class="st0" d="M137.9,156v-3.9c0-0.8-0.7-1.5-1.5-1.5h-3c-0.8,0-1.5,0.7-1.5,1.5v3.9c-0.9,0.4-1.5,1.3-1.5,2.3v4.5
	c0,1,0.6,2,1.5,2.3v3.9c0,0.8,0.6,1.5,1.5,1.5h3c0.8,0,1.5-0.7,1.5-1.5v-3.9c0.9-0.4,1.5-1.3,1.5-2.3v-4.5
	C139.5,157.3,138.8,156.4,137.9,156z M137.3,169.1c0,0.5-0.4,0.9-0.8,0.9h-3c-0.5,0-0.8-0.4-0.8-0.9v-3.7c0.1,0,0.3,0,0.4,0h3.8
	c0.2,0,0.3,0,0.4,0V169.1z M137.3,155.9c-0.1,0-0.3-0.1-0.4-0.1h-3.8c-0.1,0-0.3,0-0.4,0v-3.7c0-0.5,0.4-0.9,0.8-0.9h3
	c0.5,0,0.8,0.4,0.8,0.9V155.9z"/>
<path class="st0" d="M33.8,304.5h-5.1c-0.1,0-0.2,0-0.3,0c-0.4-0.9-1.3-1.5-2.3-1.5h-4.5c-1.4,0-2.6,1.1-2.6,2.6v3.7
	c0,1.4,1.1,2.6,2.6,2.6h4.5c1.1,0,2-0.6,2.3-1.5c0.1,0,0.2,0,0.3,0h5.1c0.8,0,1.5-0.6,1.5-1.5v-2.9
	C35.3,305.1,34.6,304.5,33.8,304.5z M34.7,308.8c0,0.5-0.4,0.8-0.8,0.8h-5.1c0,0-0.1,0-0.1,0c0-0.1,0-0.3,0-0.4v-3.7
	c0-0.1,0-0.3,0-0.4c0,0,0.1,0,0.1,0h5.1c0.5,0,0.8,0.4,0.8,0.8V308.8z"/>
<path class="st0" d="M33.8,294.6h-5.1c-0.1,0-0.2,0-0.3,0c-0.4-0.9-1.3-1.5-2.3-1.5h-4.5c-1.4,0-2.6,1.1-2.6,2.6v3.8
	c0,1.4,1.1,2.6,2.6,2.6h4.5c1.1,0,2-0.7,2.3-1.5c0.1,0,0.2,0,0.3,0h5.1c0.8,0,1.5-0.7,1.5-1.5v-2.9
	C35.3,295.3,34.6,294.6,33.8,294.6z M34.7,299c0,0.5-0.4,0.8-0.8,0.8h-5.1c0,0,0,0-0.1,0c0-0.1,0-0.3,0-0.4v-3.8c0-0.2,0-0.3,0-0.4
	c0,0,0.1,0,0.1,0h5.1c0.5,0,0.8,0.4,0.8,0.9V299z"/>
<path class="st0" d="M99.8,173.7l-3.1-3.1c0.5-0.8,0.5-1.8,0-2.5l3-3c0.3-0.3,0.4-0.6,0.4-1c0-0.4-0.2-0.7-0.4-1l-2.1-2.1
	c-0.5-0.6-1.5-0.6-2.1,0l-3,3c-0.8-0.5-1.7-0.5-2.5,0l-3.1-3.1c-0.5-0.5-1.5-0.5-2.1,0l-2.1,2.1c-0.3,0.3-0.4,0.6-0.4,1
	c0,0.4,0.2,0.8,0.4,1l3.1,3.1c-0.5,0.8-0.5,1.8,0,2.5l-3,3c-0.3,0.3-0.4,0.6-0.4,1c0,0.4,0.2,0.7,0.4,1l2.1,2.1
	c0.3,0.3,0.7,0.4,1,0.4s0.7-0.1,1-0.4l3-3c0.8,0.5,1.7,0.5,2.5,0l3.1,3.1c0.3,0.3,0.6,0.4,1,0.4c0.4,0,0.7-0.2,1-0.4l2.1-2.1
	C100.4,175.2,100.4,174.2,99.8,173.7z M86.6,177.3c-0.3,0.3-0.9,0.3-1.2,0l-2.1-2.1c-0.2-0.2-0.3-0.4-0.3-0.6c0-0.2,0.1-0.4,0.3-0.6
	l3-3c0,0,0,0,0,0.1l3.2,3.2c0,0,0,0,0.1,0L86.6,177.3z M89.6,164.4l-3.2,3.2c0,0,0,0,0,0.1l-3-3c-0.3-0.3-0.3-0.9,0-1.2l2.1-2.1
	c0.2-0.2,0.4-0.3,0.6-0.3c0.2,0,0.4,0.1,0.6,0.3L89.6,164.4C89.6,164.3,89.6,164.3,89.6,164.4z M96.1,161.4c0.2-0.2,0.4-0.2,0.6-0.2
	c0.2,0,0.4,0.1,0.6,0.2l2.1,2.1c0.2,0.2,0.3,0.4,0.3,0.6c0,0.2-0.1,0.4-0.3,0.6l-3,3c0,0,0,0,0-0.1l-3.2-3.2c0,0,0,0-0.1,0
	L96.1,161.4z M99.4,175.3l-2.1,2.1c-0.3,0.3-0.9,0.3-1.2,0l-3-3c0,0,0,0,0.1,0l3.2-3.2c0,0,0,0,0-0.1l3,3
	C99.7,174.4,99.7,175,99.4,175.3z"/>
<path class="st0" d="M75.8,198.5l-3.1-3c0.5-0.8,0.5-1.8,0-2.5l3-3c0.6-0.6,0.6-1.5,0-2.1l-2.1-2c-0.6-0.6-1.5-0.6-2.1,0l-3,3
	c-0.8-0.4-1.8-0.4-2.5,0l-3.1-3.1c-0.6-0.5-1.5-0.5-2.1,0l-2.1,2.1c-0.3,0.3-0.4,0.6-0.4,1s0.1,0.8,0.4,1l3.1,3
	c-0.5,0.8-0.5,1.8,0,2.5l-3,3c-0.3,0.3-0.4,0.6-0.4,1c0,0.4,0.2,0.8,0.4,1l2,2c0.3,0.3,0.7,0.4,1,0.4c0.4,0,0.7-0.1,1-0.4l3-3
	c0.8,0.5,1.8,0.5,2.5,0l3.1,3.1c0.3,0.3,0.6,0.4,1,0.4c0.4,0,0.8-0.1,1-0.4l2.1-2.1c0.3-0.3,0.4-0.6,0.4-1
	C76.2,199.1,76,198.8,75.8,198.5z M62.6,202.1c-0.3,0.3-0.9,0.3-1.2,0l-2.1-2.1c-0.1-0.2-0.3-0.4-0.3-0.6c0-0.2,0.1-0.4,0.3-0.6l3-3
	l3.2,3.2c0,0,0,0,0,0L62.6,202.1z M65.5,189.2l-3.2,3.2c0,0,0,0-0.1,0l-3-3c-0.2-0.2-0.3-0.4-0.3-0.6c0-0.2,0.1-0.4,0.3-0.6l2-2
	c0.2-0.2,0.4-0.3,0.6-0.3c0.2,0,0.4,0.1,0.6,0.3L65.5,189.2C65.5,189.1,65.5,189.2,65.5,189.2z M72,186.2c0.2-0.1,0.4-0.2,0.6-0.2
	c0.2,0,0.4,0.1,0.6,0.2l2.1,2.1c0.3,0.3,0.3,0.9,0,1.2l-3,3c0,0,0,0,0,0l-3.2-3.2c0,0,0,0,0,0L72,186.2z M75.3,200.1l-2.1,2
	c-0.3,0.3-0.9,0.3-1.2,0l-3-3l3.2-3.2c0,0,0,0,0.1,0l3,3c0.2,0.2,0.3,0.4,0.3,0.6C75.6,199.8,75.5,200,75.3,200.1z"/>
<path class="st0" d="M75.8,173.7l-3.1-3c0.5-0.8,0.5-1.8,0-2.5l3-3c0.6-0.6,0.6-1.5,0-2.1l-2.1-2.1c-0.6-0.5-1.5-0.5-2.1,0l-3,3
	c-0.8-0.5-1.8-0.5-2.5,0l-3.1-3.1c-0.6-0.5-1.5-0.5-2.1,0l-2.1,2.1c-0.3,0.3-0.4,0.6-0.4,1s0.1,0.8,0.4,1l3.1,3
	c-0.5,0.8-0.5,1.8,0,2.5l-3,3c-0.3,0.3-0.4,0.6-0.4,1s0.2,0.8,0.4,1l2,2c0.3,0.3,0.7,0.4,1,0.4c0.4,0,0.7-0.1,1-0.4l3-3
	c0.8,0.5,1.8,0.5,2.5,0l3.1,3.1c0.3,0.3,0.7,0.4,1,0.4c0.4,0,0.8-0.1,1-0.4l2.1-2.1c0.3-0.3,0.4-0.6,0.4-1
	C76.2,174.3,76,173.9,75.8,173.7z M59.3,164.6c-0.3-0.3-0.3-0.9,0-1.2l2-2.1c0.2-0.2,0.4-0.3,0.6-0.3c0.2,0,0.4,0.1,0.6,0.3l3,3
	c0,0,0,0,0,0l-3.2,3.2c0,0,0,0-0.1,0.1L59.3,164.6z M62.6,177.3c-0.3,0.3-0.9,0.3-1.2,0l-2.1-2.1c-0.1-0.2-0.3-0.4-0.3-0.6
	c0-0.2,0.1-0.4,0.3-0.6l3-3c0,0,0,0,0.1,0l3.2,3.2c0,0,0,0,0,0L62.6,177.3z M72,161.4c0.1-0.1,0.4-0.2,0.6-0.2
	c0.2,0,0.5,0.1,0.6,0.2l2.1,2.1c0.3,0.3,0.3,0.9,0,1.2l-3,3c0,0,0,0,0-0.1l-3.2-3.2c0,0,0,0,0,0L72,161.4z M75.3,175.3l-2.1,2
	c-0.3,0.3-0.9,0.3-1.2,0l-3-3l3.2-3.2c0,0,0,0,0.1,0l3,3c0.2,0.2,0.3,0.4,0.3,0.6C75.6,174.9,75.5,175.2,75.3,175.3z"/>
<path class="st0" d="M99.8,198.5l-3.1-3.1c0.5-0.8,0.5-1.8,0-2.5l3-3c0.3-0.3,0.4-0.6,0.4-1c0-0.4-0.2-0.7-0.4-1l-2.1-2.1
	c-0.6-0.6-1.5-0.6-2.1,0l-3,3c-0.8-0.5-1.7-0.5-2.5,0l-3.1-3.1c-0.5-0.5-1.5-0.5-2.1,0l-2.1,2.1c-0.3,0.3-0.4,0.6-0.4,1
	s0.2,0.8,0.4,1l3.1,3.1c-0.5,0.8-0.5,1.8,0,2.5l-3,3c-0.3,0.3-0.4,0.6-0.4,1c0,0.4,0.2,0.7,0.4,1l2.1,2.1c0.3,0.3,0.7,0.4,1,0.4
	s0.7-0.1,1-0.4l3-3c0.8,0.5,1.7,0.5,2.5,0l3.1,3.1c0.3,0.3,0.6,0.4,1,0.4c0.4,0,0.7-0.2,1-0.4l2.1-2.1
	C100.4,200,100.4,199.1,99.8,198.5z M86.6,202.1c-0.3,0.3-0.9,0.3-1.2,0l-2.1-2.1c-0.2-0.2-0.3-0.4-0.3-0.6c0-0.2,0.1-0.4,0.3-0.6
	l3-3c0,0,0,0,0,0.1l3.2,3.2c0,0,0,0,0.1,0L86.6,202.1z M89.6,189.2l-3.2,3.2c0,0,0,0,0,0.1l-3-3c-0.2-0.2-0.2-0.4-0.2-0.6
	s0.1-0.4,0.2-0.6l2.1-2.1c0.2-0.2,0.4-0.3,0.6-0.3c0.2,0,0.4,0.1,0.6,0.3L89.6,189.2C89.6,189.1,89.6,189.2,89.6,189.2z M96.1,186.2
	c0.2-0.2,0.4-0.2,0.6-0.2c0.2,0,0.4,0.1,0.6,0.2l2.1,2.1c0.3,0.3,0.3,0.9,0,1.2l-3,3c0,0,0,0,0-0.1l-3.2-3.2c0,0,0,0-0.1,0
	L96.1,186.2z M99.4,200.1l-2.1,2.1c-0.3,0.3-0.9,0.3-1.2,0l-3-3c0,0,0,0,0.1,0l3.2-3.2c0,0,0,0,0-0.1l3,3
	C99.7,199.2,99.7,199.8,99.4,200.1z"/>
<path class="st0" d="M86.7,150.3c-0.3,0-0.5-0.1-0.7-0.2c-0.3-0.2-0.6-0.5-0.7-0.9l-1.1-4.3c-0.2-0.8,0.3-1.6,1.1-1.8l2.8-0.7
	c0.4-0.1,0.8-0.1,1.1,0.2c0.3,0.2,0.6,0.5,0.7,0.9l1.1,4.3c0.1,0.4,0.1,0.8-0.2,1.1c-0.2,0.3-0.5,0.6-0.9,0.7l-2.8,0.7
	C86.9,150.3,86.8,150.3,86.7,150.3z M85.9,149.1c0.1,0.2,0.2,0.4,0.4,0.5c0.2,0.1,0.4,0.2,0.6,0.1l2.8-0.7c0.2-0.1,0.4-0.2,0.5-0.4
	c0.1-0.2,0.2-0.4,0.1-0.6l-1.1-4.3c-0.1-0.2-0.2-0.4-0.4-0.5c-0.2-0.1-0.4-0.2-0.6-0.1l-2.8,0.7c-0.2,0.1-0.4,0.2-0.5,0.4
	c-0.1,0.2-0.2,0.4-0.1,0.6L85.9,149.1z"/>
<path class="st0" d="M78.7,150.6C78.7,150.6,78.7,150.6,78.7,150.6l-3-0.2c-0.4,0-0.7-0.2-1-0.5c-0.3-0.3-0.4-0.7-0.4-1.1l0.2-4.4
	c0-0.4,0.2-0.7,0.5-1c0.3-0.3,0.7-0.4,1.1-0.4l2.9,0.2c0.8,0.1,1.4,0.7,1.4,1.5l-0.2,4.4c0,0.4-0.2,0.7-0.5,1
	C79.4,150.5,79.1,150.6,78.7,150.6z M76.1,143.8c-0.4,0-0.8,0.4-0.8,0.8L75,149c0,0.2,0.1,0.4,0.2,0.6s0.4,0.3,0.6,0.3l2.9,0.2
	c0.2,0,0.4-0.1,0.6-0.2c0.2-0.2,0.3-0.4,0.3-0.6l0.2-4.4c0-0.5-0.3-0.9-0.8-0.9L76.1,143.8C76.1,143.8,76.1,143.8,76.1,143.8z"/>
<path class="st0" d="M68.6,147.7c-0.3,0-0.5-0.1-0.7-0.2l-2.5-1.5c-0.3-0.2-0.6-0.5-0.7-0.9c-0.1-0.4-0.1-0.8,0.2-1.1l2.2-3.8
	c0.4-0.7,1.3-0.9,2-0.5l2.5,1.5c0.3,0.2,0.6,0.5,0.7,0.9c0.1,0.4,0.1,0.8-0.2,1.1l-2.2,3.8C69.6,147.4,69.1,147.7,68.6,147.7z
	 M68.2,140.1c-0.1,0-0.2,0-0.2,0c-0.2,0.1-0.4,0.2-0.5,0.4l-2.2,3.8c-0.1,0.2-0.2,0.4-0.1,0.6c0.1,0.2,0.2,0.4,0.4,0.5l2.5,1.5
	c0.4,0.2,0.9,0.1,1.2-0.3l2.2-3.8c0.1-0.2,0.1-0.4,0.1-0.6s-0.2-0.4-0.4-0.5l-2.5-1.5C68.5,140.1,68.4,140.1,68.2,140.1z"/>
<path class="st0" d="M60.6,141.5c-0.4,0-0.8-0.2-1.1-0.5l-1.8-2.3c-0.3-0.3-0.4-0.7-0.3-1.1c0-0.4,0.2-0.7,0.5-1l3.4-2.8
	c0.3-0.3,0.7-0.4,1.1-0.3c0.4,0,0.7,0.2,1,0.5l1.8,2.3c0.3,0.3,0.4,0.7,0.3,1.1c0,0.4-0.2,0.7-0.5,1l-3.4,2.8
	C61.3,141.4,60.9,141.5,60.6,141.5z M62.2,134.1c-0.2,0-0.4,0.1-0.5,0.2l-3.4,2.8c-0.2,0.1-0.3,0.4-0.3,0.6c0,0.2,0.1,0.4,0.2,0.6
	l1.8,2.3c0.3,0.4,0.8,0.4,1.2,0.1l3.4-2.8c0.2-0.1,0.3-0.4,0.3-0.6s-0.1-0.4-0.2-0.6l-1.8-2.3C62.7,134.3,62.5,134.1,62.2,134.1
	C62.2,134.1,62.2,134.1,62.2,134.1z"/>
<path class="st0" d="M55.5,132.8c-0.6,0-1.2-0.4-1.4-1.1l-0.8-2.8c-0.1-0.4-0.1-0.8,0.1-1.1c0.2-0.3,0.5-0.6,0.9-0.7l4.2-1.2
	c0.8-0.2,1.6,0.2,1.8,1l0.8,2.8c0.1,0.4,0.1,0.8-0.1,1.1c-0.2,0.3-0.5,0.6-0.9,0.7l-4.2,1.2C55.8,132.8,55.7,132.8,55.5,132.8z
	 M54.5,127.7c-0.5,0.1-0.7,0.6-0.6,1.1l0.8,2.8c0.1,0.2,0.2,0.4,0.4,0.5c0.2,0.1,0.4,0.1,0.6,0.1l4.2-1.2c0.5-0.1,0.7-0.6,0.6-1.1
	l-0.8-2.8c-0.1-0.5-0.6-0.7-1.1-0.6L54.5,127.7z"/>
<path class="st0" d="M109.6,120.2h-4.4c-0.8,0-1.5-0.7-1.5-1.5v-2.9c0-0.8,0.7-1.5,1.5-1.5h4.4c0.8,0,1.5,0.7,1.5,1.5v2.9
	C111.1,119.6,110.4,120.2,109.6,120.2z M105.2,115c-0.5,0-0.8,0.4-0.8,0.8v2.9c0,0.5,0.4,0.8,0.8,0.8h4.4c0.5,0,0.8-0.4,0.8-0.8
	v-2.9c0-0.5-0.4-0.8-0.8-0.8H105.2z"/>
<path class="st0" d="M109.6,129.7h-4.4c-0.8,0-1.5-0.7-1.5-1.5v-2.9c0-0.8,0.7-1.5,1.5-1.5h4.4c0.8,0,1.5,0.7,1.5,1.5v2.9
	C111.1,129.1,110.4,129.7,109.6,129.7z M105.2,124.5c-0.5,0-0.8,0.4-0.8,0.8v2.9c0,0.5,0.4,0.8,0.8,0.8h4.4c0.5,0,0.8-0.4,0.8-0.8
	v-2.9c0-0.5-0.4-0.8-0.8-0.8H105.2z"/>
<path class="st0" d="M109.6,139.3h-4.4c-0.8,0-1.5-0.7-1.5-1.5v-2.9c0-0.8,0.7-1.5,1.5-1.5h4.4c0.8,0,1.5,0.7,1.5,1.5v2.9
	C111.1,138.6,110.4,139.3,109.6,139.3z M105.2,134c-0.5,0-0.8,0.4-0.8,0.8v2.9c0,0.5,0.4,0.8,0.8,0.8h4.4c0.5,0,0.8-0.4,0.8-0.8
	v-2.9c0-0.5-0.4-0.8-0.8-0.8L105.2,134L105.2,134z"/>
<path class="st1" d="M103.4,144.6c0.7,0,1.2-0.5,1.2-1.2v-31.4c0-0.7-0.5-1.2-1.2-1.2H103l0-33.5h-5.8l0,46.1
	c0,3.9-1.5,7.4-4.1,10.1c-2.9,3.1-7.2,5.1-11.9,5.1c-8.8,0-16-6.8-16-15.1v-23.1h-5.8v23.1c0,11.4,9.8,20.7,21.8,20.7
	c4.7,0,9.1-1.4,12.7-3.9c0.6,0.4,1.5,1,2.4,1.7c1.3,1.1,2.3,2.5,2.6,2.7C100,144.6,103.4,144.6,103.4,144.6z"/>
<path class="st0" d="M33.8,174.9h-5.1c-0.1,0-0.2,0-0.3,0c-0.4-0.9-1.3-1.5-2.3-1.5h-4.5c-1.4,0-2.6,1.2-2.6,2.6v3.7
	c0,1.4,1.1,2.6,2.6,2.6h4.5c1.1,0,2-0.6,2.3-1.5c0.1,0,0.2,0,0.3,0h5.1c0.8,0,1.5-0.7,1.5-1.5v-2.9
	C35.2,175.5,34.6,174.9,33.8,174.9z M34.6,179.3c0,0.5-0.4,0.8-0.8,0.8h-5.1c0,0-0.1,0-0.1,0c0-0.1,0.1-0.3,0.1-0.4v-3.7
	c0-0.1,0-0.3,0-0.4c0,0,0.1,0,0.1,0h5.1c0.5,0,0.8,0.4,0.8,0.8V179.3z"/>
<path class="st0" d="M33.8,165h-5.1c-0.1,0-0.2,0-0.3,0c-0.4-0.9-1.3-1.6-2.3-1.6h-4.5c-1.4,0-2.6,1.2-2.6,2.6v3.7
	c0,1.4,1.1,2.6,2.6,2.6h4.5c1.1,0,2-0.6,2.3-1.5c0.1,0,0.2,0,0.3,0h5.1c0.8,0,1.5-0.7,1.5-1.5v-2.9C35.3,165.7,34.6,165,33.8,165z
	 M34.6,169.4c0,0.5-0.4,0.8-0.8,0.8h-5.1c0,0-0.1,0-0.1,0c0-0.1,0.1-0.3,0.1-0.4v-3.7c0-0.1,0-0.3,0-0.4c0,0,0,0,0.1,0h5.1
	c0.5,0,0.8,0.4,0.8,0.8V169.4z"/>
<path class="st0" d="M33.8,127.1h-5.1c-0.1,0-0.2,0-0.3,0c-0.4-0.9-1.3-1.6-2.3-1.6h-4.5c-0.7,0-1.3,0.3-1.7,0.7v7.5
	c0.5,0.4,1.1,0.7,1.7,0.7h4.5c1.1,0,2-0.6,2.3-1.5c0.1,0,0.2,0,0.3,0h5.1c0.8,0,1.5-0.7,1.5-1.5v-2.9
	C35.2,127.7,34.6,127.1,33.8,127.1z M34.6,131.4c0,0.5-0.4,0.8-0.8,0.8h-5.1c0,0-0.1,0-0.1,0c0-0.1,0.1-0.3,0.1-0.4v-3.7
	c0-0.1,0-0.3,0-0.4c0,0,0.1,0,0.1,0h5.1c0.5,0,0.8,0.4,0.8,0.8V131.4z"/>
<path class="st0" d="M19.9,126.2v7.5c-0.5-0.5-0.8-1.1-0.8-1.9v-3.7C19,127.4,19.3,126.7,19.9,126.2z"/>
<path class="st1" d="M62.2,266.1c-3,0-5.4-2.4-5.4-5.4v-0.2h6.4c0.9,0,1.7-0.7,1.7-1.7v-21.1c0-0.9-0.7-1.7-1.7-1.7h-6.4v-0.2
	c0-1.5,0.6-2.8,1.6-3.8c1-1,2.3-1.6,3.8-1.6c3,0,5.4,2.4,5.4,5.4v24.9c0,1.5-0.6,2.8-1.6,3.8S63.7,266.1,62.2,266.1z"/>
<path class="st0" d="M134.2,285.7h-4.5c-1.1,0-2,0.6-2.3,1.5c-0.1,0-0.2,0-0.3,0H122c-0.8,0-1.5,0.7-1.5,1.5v2.9
	c0,0.8,0.7,1.5,1.5,1.5h5.1c0.1,0,0.2,0,0.3,0c0.4,0.9,1.3,1.5,2.3,1.5h4.5c1.4,0,2.6-1.2,2.6-2.6v-3.7
	C136.7,286.8,135.6,285.7,134.2,285.7z M127.1,292.4c0,0-0.1,0-0.1,0H122c-0.5,0-0.8-0.4-0.8-0.9v-2.9c0-0.5,0.4-0.9,0.8-0.9h5.1
	c0,0,0.1,0,0.1,0c0,0.1-0.1,0.3-0.1,0.4v3.7C127.1,292.1,127.1,292.3,127.1,292.4z"/>
<path class="st0" d="M134.2,314.3h-4.5c-1.1,0-2,0.6-2.3,1.5c-0.1,0-0.2,0-0.3,0H122c-0.8,0-1.5,0.7-1.5,1.5v2.9
	c0,0.8,0.7,1.5,1.5,1.5h5.1c0.1,0,0.2,0,0.3,0c0.4,0.9,1.3,1.5,2.3,1.5h4.5c1.4,0,2.6-1.2,2.6-2.6v-3.7
	C136.7,315.5,135.6,314.3,134.2,314.3z M127,321.1H122c-0.5,0-0.8-0.4-0.8-0.9v-2.9c0-0.5,0.4-0.8,0.8-0.8h5.1c0,0,0.1,0,0.1,0
	c0,0.1,0,0.3,0,0.4v3.7c0,0.2,0,0.3,0.1,0.4C127.1,321.1,127.1,321.1,127,321.1z"/>
<path class="st0" d="M134.2,331.4h-4.5c-1.1,0-2,0.6-2.3,1.5c-0.1,0-0.2,0-0.3,0H122c-0.8,0-1.5,0.7-1.5,1.5v2.9
	c0,0.8,0.7,1.5,1.5,1.5h5.1c0.1,0,0.2,0,0.3,0c0.4,0.9,1.3,1.5,2.3,1.5h4.5c1.4,0,2.6-1.2,2.6-2.6v-3.7
	C136.7,332.5,135.6,331.4,134.2,331.4z M127,338.1H122c-0.5,0-0.8-0.4-0.8-0.9v-2.9c0-0.5,0.4-0.8,0.8-0.8h5.1c0,0,0.1,0,0.1,0
	c0,0.1,0,0.3,0,0.4v3.7c0,0.2,0,0.3,0.1,0.4C127.1,338.1,127.1,338.1,127,338.1z"/>
<path class="st0" d="M134.2,296h-4.5c-1.1,0-2,0.6-2.3,1.5c-0.1,0-0.2,0-0.3,0H122c-0.8,0-1.5,0.7-1.5,1.5v2.9
	c0,0.8,0.7,1.5,1.5,1.5h5.1c0.1,0,0.2,0,0.3,0c0.4,0.9,1.3,1.5,2.3,1.5h4.5c1.4,0,2.6-1.2,2.6-2.6v-3.7
	C136.7,297.2,135.6,296,134.2,296z M127,302.7H122c-0.5,0-0.8-0.4-0.8-0.8V299c0-0.5,0.4-0.9,0.8-0.9h5.1c0,0,0.1,0,0.1,0
	c0,0.1-0.1,0.3-0.1,0.4v3.7C127.1,302.5,127.1,302.6,127,302.7C127.1,302.7,127.1,302.7,127,302.7z"/>
<path class="st0" d="M33.8,152.2h-5.1c-0.1,0-0.2,0-0.3,0c-0.4-0.9-1.3-1.5-2.3-1.5h-4.5c-1.4,0-2.6,1.2-2.6,2.6v3.7
	c0,1.4,1.1,2.6,2.6,2.6h4.5c1.1,0,2-0.6,2.3-1.5c0.1,0,0.2,0,0.3,0h5.1c0.8,0,1.5-0.7,1.5-1.5v-2.9
	C35.2,152.8,34.6,152.2,33.8,152.2z M34.6,156.5c0,0.5-0.4,0.9-0.8,0.9h-5.1c0,0-0.1,0-0.1,0c0-0.1,0.1-0.3,0.1-0.4v-3.7
	c0-0.2,0-0.3-0.1-0.4c0,0,0.1,0,0.1,0h5.1c0.5,0,0.8,0.4,0.8,0.9V156.5z"/>
<path class="st1" d="M51.3,226.5c0-9.9,8-17.9,17.9-17.9s17.9,8,17.9,17.9c0,9.9-8,17.9-17.9,17.9C59.3,244.5,51.3,236.4,51.3,226.5
	z M84.8,226.5c0-8.6-7-15.6-15.6-15.6s-15.6,7-15.6,15.6s7,15.6,15.6,15.6S84.8,235.1,84.8,226.5z"/>
<path class="st0" d="M33.8,142.3h-5.1c-0.1,0-0.2,0-0.3,0c-0.4-0.9-1.3-1.5-2.3-1.5h-4.5c-1.4,0-2.6,1.2-2.6,2.6v3.8
	c0,1.4,1.1,2.6,2.6,2.6h4.5c1.1,0,2-0.6,2.3-1.5c0.1,0,0.2,0,0.3,0h5.1c0.8,0,1.5-0.7,1.5-1.5v-2.9C35.3,143,34.6,142.3,33.8,142.3z
	 M34.6,146.7c0,0.5-0.4,0.9-0.8,0.9h-5.1c0,0-0.1,0-0.1,0c0-0.1,0.1-0.3,0.1-0.4v-3.8c0-0.1,0-0.3,0-0.4c0,0,0,0,0.1,0h5.1
	c0.5,0,0.8,0.4,0.8,0.8V146.7z"/>
<path class="st1" d="M143.2,280.1v65.1h-2.7c-2.4,0-4.3-1.9-4.3-4.3v-56.5c0-2.4,1.9-4.3,4.3-4.3H143.2L143.2,280.1z"/>
<path class="st1" d="M19.9,293.4v40.9c0,2.4-1.9,4.3-4.3,4.3h-4.3v-49.5h4.3C17.9,289.1,19.9,291,19.9,293.4z"/>
<path class="st1" d="M19.9,125.5v56.5c0,2.4-1.9,4.3-4.3,4.3h-4.3v-65.1h4.3C17.9,121.2,19.9,123.2,19.9,125.5z"/>
<rect x="8.2" y="349.2" class="st2" width="3" height="0"/>
<rect x="143.2" y="349.2" class="st2" width="3" height="0"/>
<polygon class="st2" points="103,76.8 103,79.8 61.3,79.8 61.3,79.8 59,79.8 59,52.5 62,52.5 62,76.8 "/>
<path class="st0" d="M88.8,281H71.2c-1.1,0-1.9-0.9-1.9-1.9v-8.2c0-1.1,0.9-1.9,1.9-1.9h17.6c1.1,0,1.9,0.9,1.9,1.9v8.2
	C90.7,280.1,89.8,281,88.8,281z M71.2,270.1c-0.4,0-0.7,0.3-0.7,0.7v8.2c0,0.4,0.3,0.7,0.7,0.7h17.6c0.4,0,0.7-0.3,0.7-0.7v-8.2
	c0-0.4-0.3-0.7-0.7-0.7H71.2z"/>
<polygon class="st2" points="145.9,216.7 142.9,216.7 142.9,79.8 116.2,79.8 116.2,76.8 145.9,76.8 "/>
<path class="st2" d="M122.8,256.1c0.4-0.1,9.7-1.1,16.3,5.2c6.5,6.2,7,15.6,7,16l-3.2,0l1.6-0.1l-1.6,0.1c0-0.1-0.4-8.4-6-13.7
	c-5.5-5.2-14-4.4-14-4.4L122.8,256.1z"/>
<path class="st2" d="M122.5,240.2l0.1-3.1c0.1,0,8.5,0.9,14.1-4.4c5.6-5.3,6-13.6,6-13.7l3.2-0.1c0,0.4-0.4,9.8-7,16
	C132.1,241.2,122.8,240.2,122.5,240.2z"/>
<polygon class="st2" points="146.2,279.5 146.2,349.2 8.2,349.2 8.2,9.2 11.3,9.2 11.3,9.3 62,9.3 62,12.4 62,12.4 62,30.7 
	59.1,30.7 59.1,11.8 11.3,11.8 11.3,187.8 43.5,187.8 43.5,190.9 11.3,190.9 11.3,279 44.7,279 44.7,219.9 47.7,219.9 47.7,279 
	101.7,279 101.7,282 11.3,282 11.3,346.2 143.2,346.2 143.2,279.5 "/>
<path class="st0" d="M108.1,333.9l-3.1-3.1c0.5-0.8,0.5-1.7,0-2.5l3-3c0.3-0.3,0.4-0.6,0.4-1c0-0.4-0.2-0.8-0.4-1l-2.1-2.1
	c-0.5-0.5-1.5-0.5-2.1,0l-3,3c-0.8-0.5-1.7-0.5-2.5,0l-3.1-3.1c-0.6-0.6-1.5-0.6-2.1,0l-2.1,2.1c-0.3,0.3-0.4,0.6-0.4,1
	s0.2,0.8,0.4,1l3.1,3.1c-0.5,0.8-0.5,1.8,0,2.5l-3,3c-0.6,0.6-0.6,1.5,0,2.1l2.1,2.1c0.3,0.3,0.6,0.4,1,0.4s0.8-0.2,1-0.4l3-3
	c0.8,0.5,1.7,0.5,2.5,0l3.1,3.1c0.3,0.3,0.7,0.4,1,0.4c0.4,0,0.7-0.1,1-0.4l2.1-2.1c0.3-0.3,0.4-0.6,0.4-1
	C108.5,334.6,108.4,334.2,108.1,333.9z M91.7,324.9c-0.2-0.2-0.3-0.4-0.3-0.6c0-0.2,0.1-0.4,0.3-0.6l2.1-2.1c0.3-0.3,0.9-0.3,1.2,0
	l3,3c0,0,0,0,0,0l-3.2,3.2c0,0,0,0,0,0L91.7,324.9z M94.9,337.6c-0.3,0.3-0.9,0.3-1.2,0l-2.1-2.1c-0.3-0.3-0.3-0.9,0-1.2l3-3
	c0,0,0,0,0,0.1l3.2,3.2c0,0,0,0,0.1,0L94.9,337.6z M104.4,321.6c0.2-0.2,0.4-0.3,0.6-0.3c0.2,0,0.4,0.1,0.6,0.3l2.1,2.1
	c0.3,0.3,0.3,0.9,0,1.2l-3,3c0,0,0,0,0-0.1l-3.2-3.2c0,0,0,0-0.1,0L104.4,321.6z M107.7,335.6l-2.1,2.1c-0.3,0.3-0.9,0.3-1.2,0l-3-3
	c0,0,0,0,0,0l3.2-3.2c0,0,0,0,0,0l3,3c0.2,0.2,0.2,0.4,0.2,0.6C107.9,335.2,107.8,335.4,107.7,335.6z"/>
<path class="st0" d="M108.1,304.6l-3-3.1c0.5-0.8,0.5-1.7,0-2.5l3-3c0.3-0.3,0.4-0.6,0.4-1s-0.2-0.8-0.4-1l-2.1-2.1
	c-0.5-0.5-1.5-0.5-2.1,0l-3,3c-0.8-0.5-1.8-0.5-2.5,0l-3.1-3c-0.5-0.6-1.5-0.6-2.1,0l-2.1,2c-0.3,0.3-0.4,0.6-0.4,1s0.2,0.8,0.4,1
	l3.1,3.1c-0.5,0.8-0.5,1.8,0,2.5l-3,3c-0.3,0.3-0.4,0.6-0.4,1s0.2,0.8,0.4,1l2.1,2.1c0.3,0.3,0.6,0.4,1,0.4c0.4,0,0.8-0.2,1-0.4l3-3
	c0.8,0.5,1.7,0.5,2.5,0l3.1,3c0.3,0.3,0.7,0.4,1,0.4c0.4,0,0.8-0.1,1-0.4l2-2c0.3-0.3,0.4-0.6,0.4-1
	C108.5,305.3,108.4,304.9,108.1,304.6z M91.7,295.6c-0.2-0.2-0.3-0.4-0.3-0.6c0-0.2,0.1-0.4,0.3-0.6l2.1-2.1c0.3-0.3,0.9-0.3,1.2,0
	l3,3c0,0,0,0,0,0l-3.2,3.2c0,0,0,0,0,0L91.7,295.6z M94.9,308.3c-0.3,0.3-0.9,0.3-1.2,0l-2-2c-0.3-0.3-0.3-0.9,0-1.2l3-3
	c0,0,0,0,0,0.1l3.2,3.2c0,0,0,0,0,0L94.9,308.3z M104.4,292.3c0.1-0.2,0.4-0.3,0.6-0.3c0.2,0,0.4,0.1,0.6,0.3l2.1,2
	c0.3,0.3,0.3,0.9,0,1.2l-3,3c0,0,0,0,0,0l-3.2-3.2c0,0,0,0,0,0L104.4,292.3z M107.7,306.3l-2.1,2c-0.3,0.3-0.9,0.3-1.2,0l-3-3
	c0,0,0,0,0,0l3.2-3.2c0,0,0,0,0,0l3,3c0.1,0.2,0.2,0.4,0.2,0.6C107.9,305.9,107.8,306.1,107.7,306.3z"/>
<circle class="st0" cx="96.5" cy="274.7" r="3.7"/>
<path class="st0" d="M57.3,333.9l-3.1-3.1c0.5-0.8,0.5-1.7,0-2.5l3-3c0.3-0.3,0.4-0.6,0.4-1c0-0.4-0.2-0.8-0.4-1l-2.1-2.1
	c-0.5-0.5-1.5-0.5-2.1,0l-3,3c-0.8-0.5-1.7-0.5-2.5,0l-3.1-3.1c-0.6-0.6-1.5-0.6-2.1,0l-2.1,2.1c-0.3,0.3-0.4,0.6-0.4,1
	s0.2,0.8,0.4,1l3.1,3.1c-0.5,0.8-0.5,1.8,0,2.5l-3,3c-0.6,0.6-0.6,1.5,0,2.1l2.1,2.1c0.3,0.3,0.6,0.4,1,0.4s0.8-0.2,1-0.4l3-3
	c0.8,0.5,1.7,0.5,2.5,0l3.1,3.1c0.3,0.3,0.7,0.4,1,0.4c0.4,0,0.7-0.1,1-0.4l2.1-2.1c0.3-0.3,0.4-0.6,0.4-1
	C57.7,334.6,57.6,334.2,57.3,333.9z M40.8,324.9c-0.2-0.2-0.3-0.4-0.3-0.6c0-0.2,0.1-0.4,0.3-0.6l2.1-2.1c0.3-0.3,0.9-0.3,1.2,0l3,3
	c0,0,0,0,0,0l-3.2,3.2c0,0,0,0,0,0L40.8,324.9z M44.1,337.6c-0.3,0.3-0.9,0.3-1.2,0l-2.1-2.1c-0.3-0.3-0.3-0.9,0-1.2l3-3
	c0,0,0,0,0,0.1l3.2,3.2c0,0,0,0,0.1,0L44.1,337.6z M53.5,321.6c0.2-0.2,0.4-0.3,0.6-0.3c0.2,0,0.4,0.1,0.6,0.3l2.1,2.1
	c0.3,0.3,0.3,0.9,0,1.2l-3,3c0,0,0,0,0-0.1l-3.2-3.2c0,0,0,0-0.1,0L53.5,321.6z M56.9,335.6l-2.1,2.1c-0.3,0.3-0.9,0.3-1.2,0l-3-3
	c0,0,0,0,0,0l3.2-3.2c0,0,0,0,0,0l3,3c0.2,0.2,0.2,0.4,0.2,0.6C57.1,335.2,57,335.4,56.9,335.6z"/>
</svg>
