<svg xmlns="http://www.w3.org/2000/svg" viewBox="0 0 1.14 2.53">
<defs>
<style>.cls-1{fill:#367f33;}
</style>
</defs>
<title>Asset 1</title>
<g id="Layer_2" data-name="Layer 2">
<g id="Layer_1-2" data-name="Layer 1">
<path 
    class="cls-1" 
    d="M.94.68V.19A.18.18,0,0,0,.76,0H.38A.18.18,0,0,0,.2.19V.68A.33.33,0,0,0,0,1v.58a.31.31,0,0,0,.2.29v.5a.18.18,0,0,0,.18.18H.76a.18.18,0,0,0,.18-.18v-.5a.31.31,0,0,0,.2-.29V1A.33.33,0,0,0,.94.68ZM.87,2.35a.11.11,0,0,1-.11.11H.38a.11.11,0,0,1-.11-.11V1.88h.6ZM.87.66H.27V.19A.11.11,0,0,1,.38.08H.76A.11.11,0,0,1,.87.19Z"/>
    
    </g>
    </g>
</svg>